<?xml version="1.0" encoding="utf-8"?>
<!-- Generator: Adobe Illustrator 27.5.0, SVG Export Plug-In . SVG Version: 6.00 Build 0)  -->
<svg version="1.1" xmlns="http://www.w3.org/2000/svg" xmlns:xlink="http://www.w3.org/1999/xlink" x="0px" y="0px"
	 viewBox="175 -10 500 400"  xml:space="preserve" transform='scale(3)'>


	
		
		
		
		
			
				<polygon style="fill:#E54D25;" points="132.228,480.625 87.312,460.413 45.02,470.961 23.364,418.447 23.826,418.256 
					45.317,470.371 87.359,459.886 87.438,459.922 132.433,480.17 				"/>
			
			
				<circle style="fill:#E54D25;" cx="45.438" cy="470.127" r="2.067"/>
			
			
				<circle style="fill:#E54D25;" cx="87.437" cy="460.412" r="2.067"/>
			
			
				<circle style="fill:#E54D25;" cx="132.33" cy="480.397" r="2.067"/>
			
			
				<circle style="fill:#E54D25;" cx="23.595" cy="418.352" r="2.067"/>
			
		
		
			<path style="fill:#152F4C;" d="M456.336,189.48c-0.321-6.472-2.784-12.378-6.692-17.031c-0.128-0.153-0.26-0.301-0.391-0.451
				c-0.18-0.206-0.361-0.41-0.547-0.611c-0.2-0.216-0.403-0.429-0.609-0.639c-0.107-0.109-0.215-0.216-0.324-0.323
				c-0.941-0.93-1.939-1.804-3.001-2.598c0.001,0.008,0.002,0.016,0.003,0.024c-4.79-3.568-10.729-5.681-17.161-5.681
				c-14.912,0-27.172,11.35-28.615,25.883c0,0,0,0,0,0c-0.002,0.017-0.002,0.034-0.004,0.051c-0.044,0.456-0.08,0.915-0.103,1.376
				c-0.024,0.48-0.037,0.962-0.037,1.448c0,1.632,0.143,3.23,0.404,4.788c-0.014-0.01-0.029-0.019-0.043-0.029
				c0.058,0.346,0.149,0.68,0.22,1.021c0.004,0.018,0.008,0.035,0.011,0.053c0.172,0.826,0.378,1.638,0.62,2.437
				c0.056,0.186,0.113,0.371,0.172,0.555c0.182,0.559,0.378,1.11,0.592,1.653c0.131,0.335,0.266,0.669,0.41,0.998
				c0.13,0.297,0.26,0.593,0.4,0.884c0.255,0.534,0.527,1.057,0.813,1.572c0.114,0.204,0.23,0.406,0.349,0.607
				c0.337,0.574,0.691,1.137,1.066,1.685c0.067,0.097,0.137,0.192,0.205,0.288c5.203,7.404,13.803,12.247,23.539,12.247
				c15.883,0,28.758-12.876,28.758-28.758C456.372,190.442,456.36,189.959,456.336,189.48z"/>
			
				<circle style="fill:#FBCE73;" cx="426.476" cy="189.225" r="28.758"/>
				<path style="opacity:0.18;fill:#FFFFFF;" d="M443.634,166.124c0.264,1.566,0.409,3.173,0.409,4.815
					c0,15.883-12.876,28.758-28.758,28.758c-6.452,0-12.407-2.125-17.205-5.712c2.292,13.589,14.108,23.943,28.349,23.943
					c15.883,0,28.758-12.876,28.758-28.758C455.187,179.739,450.648,171.368,443.634,166.124z"/>
				<path style="opacity:0.74;fill:#EAAF47;" d="M426.476,212.232c-14.912,0-27.172-11.35-28.615-25.883
					c-0.094,0.946-0.144,1.905-0.144,2.876c0,15.883,12.876,28.758,28.758,28.758s28.758-12.876,28.758-28.758
					c0-0.971-0.05-1.93-0.144-2.876C453.648,200.882,441.388,212.232,426.476,212.232z"/>
				
					<ellipse transform="matrix(0.866 -0.5 0.5 0.866 -30.1676 231.7507)" style="opacity:0.18;fill:#FFFFFF;" cx="417.369" cy="172.169" rx="10.803" ry="5.552"/>
				
					
						<ellipse transform="matrix(0.1497 -0.9887 0.9887 0.1497 182.5703 603.4912)" style="fill:#EAAF47;" cx="442.165" cy="195.596" rx="5.811" ry="6.36"/>
					<path style="opacity:0.59;fill:#F4F6EB;" d="M442.453,190.965c3.473,0.526,5.898,3.525,5.418,6.698
						c-0.058,0.384-0.158,0.753-0.292,1.104c0.445-0.654,0.753-1.402,0.877-2.221c0.481-3.173-1.945-6.172-5.418-6.698
						c-3.052-0.462-5.896,1.14-6.866,3.689C437.45,191.658,439.876,190.575,442.453,190.965z"/>
				
				
					
						<ellipse transform="matrix(0.9695 -0.2452 0.2452 0.9695 -32.8106 105.4954)" style="fill:#EAAF47;" cx="407.3" cy="184.526" rx="3.987" ry="3.644"/>
					<path style="opacity:0.59;fill:#F4F6EB;" d="M406.342,181.78c2.135-0.54,4.266,0.604,4.759,2.555
						c0.06,0.236,0.092,0.474,0.1,0.709c0.098-0.486,0.094-0.994-0.033-1.497c-0.493-1.951-2.624-3.095-4.759-2.555
						c-1.876,0.475-3.13,2.092-3.072,3.801C403.618,183.396,404.758,182.18,406.342,181.78z"/>
				
				
					
						<ellipse transform="matrix(0.9246 -0.3808 0.3808 0.9246 -36.5674 177.3381)" style="fill:#EAAF47;" cx="429.821" cy="181.069" rx="3.945" ry="3.605"/>
					<path style="opacity:0.59;fill:#F4F6EB;" d="M428.495,178.515c2.014-0.83,4.262-0.01,5.02,1.831
						c0.092,0.223,0.156,0.451,0.198,0.68c0.028-0.49-0.048-0.986-0.243-1.461c-0.758-1.841-3.006-2.66-5.02-1.831
						c-1.77,0.729-2.77,2.49-2.472,4.155C426.056,180.481,427.001,179.13,428.495,178.515z"/>
				
				
					
						<ellipse transform="matrix(0.9246 -0.3808 0.3808 0.9246 -43.629 171.9846)" style="fill:#EAAF47;" cx="412.763" cy="196.236" rx="2.502" ry="2.287"/>
					<path style="opacity:0.59;fill:#F4F6EB;" d="M411.922,194.616c1.278-0.526,2.703-0.006,3.184,1.161
						c0.058,0.141,0.099,0.286,0.125,0.431c0.017-0.311-0.03-0.626-0.154-0.927c-0.481-1.168-1.907-1.688-3.184-1.161
						c-1.123,0.463-1.757,1.579-1.568,2.636C410.375,195.863,410.974,195.006,411.922,194.616z"/>
				
				
					
						<ellipse transform="matrix(0.9246 -0.3808 0.3808 0.9246 -47.5792 171.1964)" style="fill:#EAAF47;" cx="408.796" cy="205.823" rx="3.153" ry="2.881"/>
					<path style="opacity:0.59;fill:#F4F6EB;" d="M407.736,203.781c1.61-0.663,3.407-0.008,4.013,1.463
						c0.073,0.178,0.125,0.36,0.158,0.544c0.022-0.391-0.038-0.788-0.195-1.168c-0.606-1.471-2.402-2.126-4.013-1.463
						c-1.415,0.583-2.214,1.99-1.976,3.321C405.787,205.353,406.542,204.273,407.736,203.781z"/>
				
				
					
						<ellipse transform="matrix(0.9246 -0.3808 0.3808 0.9246 -35.7264 183.3913)" style="fill:#EAAF47;" cx="445.537" cy="181.97" rx="2.502" ry="2.287"/>
					<path style="opacity:0.59;fill:#F4F6EB;" d="M444.696,180.35c1.278-0.526,2.704-0.006,3.184,1.161
						c0.058,0.141,0.099,0.286,0.125,0.431c0.017-0.311-0.03-0.626-0.154-0.927c-0.481-1.168-1.907-1.688-3.184-1.161
						c-1.123,0.463-1.757,1.579-1.568,2.636C443.149,181.597,443.748,180.741,444.696,180.35z"/>
				
				
					
						<ellipse transform="matrix(0.9246 -0.3808 0.3808 0.9246 -45.439 180.9665)" style="fill:#EAAF47;" cx="434.554" cy="205.3" rx="0.88" ry="0.804"/>
					<path style="opacity:0.59;fill:#F4F6EB;" d="M434.258,204.73c0.449-0.185,0.951-0.002,1.12,0.408
						c0.021,0.05,0.035,0.101,0.044,0.152c0.006-0.109-0.011-0.22-0.054-0.326c-0.169-0.411-0.671-0.593-1.12-0.408
						c-0.395,0.163-0.618,0.555-0.552,0.927C433.714,205.169,433.924,204.868,434.258,204.73z"/>
				
				
					
						<ellipse transform="matrix(0.9246 -0.3808 0.3808 0.9246 -33.5022 180.8582)" style="fill:#EAAF47;" cx="440.248" cy="175.084" rx="0.88" ry="0.804"/>
					<path style="opacity:0.59;fill:#F4F6EB;" d="M439.953,174.514c0.449-0.185,0.951-0.002,1.12,0.408
						c0.02,0.05,0.035,0.101,0.044,0.152c0.006-0.109-0.011-0.22-0.054-0.326c-0.169-0.411-0.671-0.594-1.12-0.408
						c-0.395,0.163-0.618,0.555-0.552,0.927C439.408,174.953,439.619,174.651,439.953,174.514z"/>
				
				
					
						<ellipse transform="matrix(0.9246 -0.3808 0.3808 0.9246 -37.3766 185.4421)" style="fill:#EAAF47;" cx="449.894" cy="187.166" rx="0.88" ry="0.804"/>
					<path style="opacity:0.59;fill:#F4F6EB;" d="M449.598,186.596c0.449-0.185,0.951-0.002,1.12,0.408
						c0.02,0.05,0.035,0.101,0.044,0.152c0.006-0.109-0.011-0.22-0.054-0.326c-0.169-0.411-0.671-0.594-1.12-0.408
						c-0.395,0.163-0.618,0.555-0.552,0.927C449.054,187.035,449.265,186.733,449.598,186.596z"/>
				
				
					
						<ellipse transform="matrix(0.9246 -0.3808 0.3808 0.9246 -47.2128 176.7124)" style="fill:#EAAF47;" cx="422.917" cy="207.655" rx="1.167" ry="1.066"/>
					<path style="opacity:0.59;fill:#F4F6EB;" d="M422.525,206.9c0.596-0.245,1.261-0.003,1.485,0.541
						c0.027,0.066,0.046,0.133,0.058,0.201c0.008-0.145-0.014-0.292-0.072-0.432c-0.224-0.544-0.889-0.787-1.485-0.541
						c-0.524,0.216-0.819,0.736-0.731,1.229C421.804,207.481,422.083,207.082,422.525,206.9z"/>
				
				
					
						<ellipse transform="matrix(0.9246 -0.3808 0.3808 0.9246 -30.4968 179.9195)" style="fill:#EAAF47;" cx="439.379" cy="167.02" rx="1.167" ry="1.066"/>
					<path style="opacity:0.59;fill:#F4F6EB;" d="M438.987,166.265c0.596-0.245,1.261-0.003,1.485,0.541
						c0.027,0.066,0.046,0.133,0.058,0.201c0.008-0.145-0.014-0.292-0.072-0.432c-0.224-0.544-0.889-0.787-1.485-0.541
						c-0.524,0.216-0.819,0.736-0.731,1.229C438.266,166.846,438.545,166.447,438.987,166.265z"/>
				
				
					
						<ellipse transform="matrix(0.9246 -0.3808 0.3808 0.9246 -44.3397 168.3938)" style="fill:#EAAF47;" cx="403.334" cy="196.236" rx="1.167" ry="1.066"/>
					<path style="opacity:0.59;fill:#F4F6EB;" d="M402.942,195.481c0.596-0.245,1.261-0.003,1.485,0.541
						c0.027,0.066,0.046,0.133,0.058,0.201c0.008-0.145-0.014-0.292-0.072-0.432c-0.224-0.544-0.889-0.787-1.485-0.541
						c-0.524,0.216-0.819,0.736-0.731,1.229C402.221,196.062,402.5,195.663,402.942,195.481z"/>
				
				
					
						<ellipse transform="matrix(0.9246 -0.3808 0.3808 0.9246 -44.6047 178.6743)" style="fill:#EAAF47;" cx="429.179" cy="202.046" rx="0.579" ry="0.529"/>
					<path style="opacity:0.59;fill:#F4F6EB;" d="M428.984,201.671c0.296-0.122,0.625-0.001,0.737,0.269
						c0.013,0.033,0.023,0.066,0.029,0.1c0.004-0.072-0.007-0.145-0.036-0.214c-0.111-0.27-0.441-0.39-0.737-0.269
						c-0.26,0.107-0.407,0.365-0.363,0.61C428.626,201.96,428.765,201.762,428.984,201.671z"/>
				
				
					
						<ellipse transform="matrix(0.9246 -0.3808 0.3808 0.9246 -36.8773 180.6098)" style="fill:#EAAF47;" cx="437.933" cy="183.488" rx="0.579" ry="0.529"/>
					<path style="opacity:0.59;fill:#F4F6EB;" d="M437.739,183.113c0.296-0.122,0.625-0.001,0.737,0.269
						c0.013,0.033,0.023,0.066,0.029,0.1c0.004-0.072-0.007-0.145-0.036-0.214c-0.111-0.27-0.441-0.39-0.737-0.269
						c-0.26,0.107-0.407,0.365-0.363,0.61C437.381,183.402,437.519,183.203,437.739,183.113z"/>
				
				
					
						<ellipse transform="matrix(0.9246 -0.3808 0.3808 0.9246 -42.3942 169.8049)" style="fill:#EAAF47;" cx="407.872" cy="192.026" rx="0.579" ry="0.529"/>
					<path style="opacity:0.59;fill:#F4F6EB;" d="M407.678,191.651c0.296-0.122,0.625-0.001,0.737,0.269
						c0.013,0.033,0.023,0.066,0.029,0.1c0.004-0.072-0.007-0.145-0.036-0.214c-0.111-0.27-0.441-0.39-0.737-0.269
						c-0.26,0.107-0.407,0.365-0.363,0.61C407.32,191.94,407.459,191.741,407.678,191.651z"/>
				
				
					
						<ellipse transform="matrix(0.9246 -0.3808 0.3808 0.9246 -46.303 182.7013)" style="fill:#EAAF47;" cx="438.505" cy="208.351" rx="0.579" ry="0.529"/>
					<path style="opacity:0.59;fill:#F4F6EB;" d="M438.311,207.976c0.296-0.122,0.625-0.001,0.737,0.269
						c0.013,0.033,0.023,0.066,0.029,0.1c0.004-0.072-0.007-0.145-0.036-0.214c-0.111-0.27-0.441-0.39-0.737-0.269
						c-0.26,0.107-0.407,0.365-0.363,0.61C437.953,208.265,438.091,208.066,438.311,207.976z"/>
				
				
					
						<ellipse transform="matrix(0.9246 -0.3808 0.3808 0.9246 -33.7699 184.1581)" style="fill:#EAAF47;" cx="448.453" cy="177.41" rx="0.579" ry="0.529"/>
					<path style="opacity:0.59;fill:#F4F6EB;" d="M448.258,177.035c0.296-0.122,0.625-0.001,0.737,0.269
						c0.013,0.033,0.023,0.066,0.029,0.1c0.004-0.072-0.007-0.145-0.036-0.214c-0.111-0.27-0.441-0.39-0.737-0.269
						c-0.26,0.107-0.407,0.365-0.363,0.61C447.9,177.324,448.039,177.126,448.258,177.035z"/>
				
				
					
						<ellipse transform="matrix(0.9246 -0.3808 0.3808 0.9246 -47.2714 181.9694)" style="fill:#EAAF47;" cx="436.172" cy="210.432" rx="0.579" ry="0.529"/>
					<path style="opacity:0.59;fill:#F4F6EB;" d="M435.977,210.057c0.296-0.122,0.625-0.001,0.737,0.269
						c0.013,0.033,0.023,0.066,0.029,0.1c0.004-0.072-0.007-0.145-0.036-0.214c-0.111-0.27-0.441-0.39-0.737-0.269
						c-0.26,0.107-0.407,0.365-0.363,0.61C435.619,210.345,435.758,210.147,435.977,210.057z"/>
				
				
					
						<ellipse transform="matrix(0.9246 -0.3808 0.3808 0.9246 -47.478 179.6107)" style="fill:#EAAF47;" cx="430.108" cy="209.775" rx="0.579" ry="0.529"/>
					<path style="opacity:0.59;fill:#F4F6EB;" d="M429.914,209.4c0.296-0.122,0.625-0.001,0.737,0.269
						c0.013,0.033,0.023,0.066,0.029,0.1c0.004-0.072-0.007-0.145-0.036-0.214c-0.111-0.27-0.441-0.39-0.737-0.269
						c-0.26,0.107-0.407,0.365-0.363,0.61C429.556,209.688,429.694,209.49,429.914,209.4z"/>
				
				
					
						<ellipse transform="matrix(0.9246 -0.3808 0.3808 0.9246 -47.9781 172.8452)" style="fill:#EAAF47;" cx="412.763" cy="207.656" rx="0.372" ry="0.34"/>
					<path style="opacity:0.59;fill:#F4F6EB;" d="M412.638,207.415c0.19-0.078,0.402-0.001,0.474,0.173
						c0.009,0.021,0.015,0.043,0.019,0.064c0.003-0.046-0.004-0.093-0.023-0.138c-0.072-0.174-0.284-0.251-0.474-0.173
						c-0.167,0.069-0.261,0.235-0.233,0.392C412.408,207.6,412.497,207.473,412.638,207.415z"/>
				
				
					
						<ellipse transform="matrix(0.9246 -0.3808 0.3808 0.9246 -46.4106 178.4124)" style="fill:#EAAF47;" cx="427.614" cy="206.478" rx="0.372" ry="0.34"/>
					<path style="opacity:0.59;fill:#F4F6EB;" d="M427.489,206.237c0.19-0.078,0.402-0.001,0.473,0.173
						c0.009,0.021,0.015,0.043,0.019,0.064c0.003-0.046-0.005-0.093-0.023-0.138c-0.072-0.174-0.284-0.251-0.474-0.173
						c-0.167,0.069-0.261,0.235-0.233,0.392C427.259,206.423,427.348,206.296,427.489,206.237z"/>
				
				
					
						<ellipse transform="matrix(0.9246 -0.3808 0.3808 0.9246 -35.4705 185.7246)" style="fill:#EAAF47;" cx="451.561" cy="182.49" rx="0.372" ry="0.34"/>
					<path style="opacity:0.59;fill:#F4F6EB;" d="M451.436,182.25c0.19-0.078,0.402-0.001,0.474,0.173
						c0.009,0.021,0.015,0.043,0.019,0.064c0.003-0.046-0.004-0.093-0.023-0.138c-0.072-0.174-0.284-0.251-0.474-0.173
						c-0.167,0.069-0.261,0.235-0.233,0.392C451.206,182.435,451.295,182.308,451.436,182.25z"/>
				
				
					
						<ellipse transform="matrix(0.9246 -0.3808 0.3808 0.9246 -41.1939 171.3573)" style="fill:#EAAF47;" cx="412.395" cy="189.769" rx="0.372" ry="0.34"/>
					<path style="opacity:0.59;fill:#F4F6EB;" d="M412.27,189.528c0.19-0.078,0.402-0.001,0.473,0.173
						c0.009,0.021,0.015,0.043,0.019,0.064c0.003-0.046-0.005-0.093-0.023-0.138c-0.072-0.174-0.284-0.251-0.474-0.173
						c-0.167,0.069-0.261,0.235-0.233,0.392C412.04,189.713,412.129,189.586,412.27,189.528z"/>
				
				
					
						<ellipse transform="matrix(0.9246 -0.3808 0.3808 0.9246 -44.222 184.8153)" style="fill:#EAAF47;" cx="444.888" cy="204.149" rx="0.372" ry="0.34"/>
					<path style="opacity:0.59;fill:#F4F6EB;" d="M444.762,203.909c0.19-0.078,0.402-0.001,0.474,0.173
						c0.009,0.021,0.015,0.043,0.019,0.064c0.003-0.046-0.004-0.093-0.023-0.138c-0.072-0.174-0.284-0.251-0.474-0.173
						c-0.167,0.069-0.261,0.235-0.233,0.392C444.532,204.094,444.622,203.967,444.762,203.909z"/>
				
				
					
						<ellipse transform="matrix(0.9246 -0.3808 0.3808 0.9246 -46.6929 172.9972)" style="fill:#EAAF47;" cx="413.789" cy="204.484" rx="0.579" ry="0.529"/>
					<path style="opacity:0.59;fill:#F4F6EB;" d="M413.595,204.109c0.296-0.122,0.625-0.001,0.737,0.269
						c0.013,0.033,0.023,0.066,0.029,0.1c0.004-0.072-0.007-0.145-0.036-0.214c-0.111-0.27-0.441-0.39-0.737-0.269
						c-0.26,0.107-0.407,0.365-0.363,0.61C413.237,204.398,413.376,204.2,413.595,204.109z"/>
				
				
					
						<ellipse transform="matrix(0.9246 -0.3808 0.3808 0.9246 -48.3944 173.9058)" style="fill:#EAAF47;" cx="415.235" cy="209.238" rx="0.579" ry="0.529"/>
					<path style="opacity:0.59;fill:#F4F6EB;" d="M415.04,208.863c0.296-0.122,0.625-0.001,0.737,0.269
						c0.013,0.033,0.023,0.066,0.029,0.1c0.004-0.072-0.007-0.145-0.036-0.214c-0.111-0.27-0.441-0.39-0.737-0.269
						c-0.26,0.107-0.407,0.365-0.363,0.61C414.682,209.151,414.821,208.953,415.04,208.863z"/>
				
				
					
						<ellipse transform="matrix(0.9246 -0.3808 0.3808 0.9246 -33.7511 176.8945)" style="fill:#EAAF47;" cx="430.108" cy="173.731" rx="0.579" ry="0.529"/>
					<path style="opacity:0.59;fill:#F4F6EB;" d="M429.914,173.356c0.296-0.122,0.625-0.001,0.737,0.269
						c0.013,0.033,0.023,0.066,0.029,0.1c0.004-0.072-0.007-0.145-0.036-0.214c-0.111-0.27-0.441-0.39-0.737-0.269
						c-0.26,0.107-0.407,0.365-0.363,0.61C429.556,173.644,429.695,173.446,429.914,173.356z"/>
				
				
					
						<ellipse transform="matrix(0.9246 -0.3808 0.3808 0.9246 -40.257 173.0244)" style="fill:#EAAF47;" cx="417.076" cy="188.235" rx="0.579" ry="0.529"/>
					<path style="opacity:0.59;fill:#F4F6EB;" d="M416.882,187.86c0.296-0.122,0.625-0.001,0.737,0.269
						c0.013,0.033,0.023,0.066,0.029,0.1c0.004-0.072-0.007-0.145-0.036-0.214c-0.111-0.27-0.441-0.39-0.737-0.269
						c-0.26,0.107-0.407,0.365-0.363,0.61C416.524,188.149,416.662,187.951,416.882,187.86z"/>
				
				
					
						<ellipse transform="matrix(0.9246 -0.3808 0.3808 0.9246 -37.6764 183.2938)" style="fill:#EAAF47;" cx="444.316" cy="186.849" rx="0.579" ry="0.529"/>
					<path style="opacity:0.59;fill:#F4F6EB;" d="M444.121,186.474c0.296-0.122,0.625-0.001,0.737,0.269
						c0.013,0.033,0.023,0.066,0.029,0.1c0.004-0.072-0.007-0.145-0.036-0.214c-0.111-0.27-0.441-0.39-0.737-0.269
						c-0.26,0.107-0.407,0.365-0.363,0.61C443.763,186.763,443.902,186.565,444.121,186.474z"/>
				
			
		
	

</svg>
