<?xml version="1.0" encoding="utf-8"?>
<!-- Generator: Adobe Illustrator 27.5.0, SVG Export Plug-In . SVG Version: 6.00 Build 0)  -->
<svg version="1.1" xmlns="http://www.w3.org/2000/svg" xmlns:xlink="http://www.w3.org/1999/xlink" x="0px" y="0px"
	 viewBox="-50 10 300 300" xml:space="preserve" transform='scale(2)'>

			<path style="fill:#152F4C;" d="M145.838,164.988c0-0.742-0.019-1.479-0.056-2.212c-0.036-0.731-0.092-1.457-0.163-2.178
				c0-0.001,0-0.002,0-0.003l0,0c-0.768-7.736-3.551-14.874-7.804-20.901c-0.087-0.124-0.175-0.247-0.263-0.37
				c-0.228-0.316-0.457-0.631-0.693-0.941c-0.287-0.378-0.58-0.75-0.879-1.119c-0.107-0.132-0.215-0.263-0.323-0.394
				c-2.22-2.675-4.749-5.086-7.536-7.17c0.002,0.013,0.004,0.025,0.006,0.038c-7.317-5.451-16.388-8.678-26.214-8.678
				c-22.777,0-41.503,17.337-43.707,39.534l0,0c0,0.001,0,0.002,0,0.003c-0.072,0.721-0.127,1.447-0.163,2.178
				c-0.037,0.733-0.056,1.47-0.056,2.212l0,0v0c0,2.494,0.219,4.936,0.618,7.316c-0.021-0.016-0.044-0.031-0.065-0.047
				c0.94,5.573,2.937,10.784,5.764,15.434c0.026,0.043,0.051,0.085,0.077,0.128c0.306,0.5,0.622,0.992,0.948,1.478
				c0.081,0.122,0.16,0.245,0.242,0.366c0.256,0.375,0.522,0.743,0.789,1.11c0.153,0.21,0.302,0.424,0.459,0.631
				c0.129,0.171,0.265,0.336,0.397,0.505c1.561,2.009,3.283,3.886,5.163,5.595c7.801,7.09,18.163,11.411,29.535,11.411
				s21.734-4.321,29.535-11.411C140.287,189.468,145.838,177.876,145.838,164.988L145.838,164.988L145.838,164.988z"/>
			
				<circle style="fill:#EE5829;" cx="101.925" cy="162.317" r="43.926"/>
				<path style="opacity:0.08;fill:#FFFFFF;" d="M128.133,127.03c0.404,2.393,0.625,4.847,0.625,7.354
					c0,24.26-19.667,43.926-43.926,43.926c-9.855,0-18.952-3.245-26.28-8.725c3.501,20.757,21.549,36.572,43.302,36.572
					c24.26,0,43.926-19.667,43.926-43.926C145.78,147.826,138.846,135.041,128.133,127.03z"/>
				<path style="fill:#E54D25;" d="M101.925,197.458c-22.777,0-41.503-17.337-43.707-39.534c-0.143,1.445-0.219,2.91-0.219,4.393
					c0,24.26,19.667,43.926,43.926,43.926s43.926-19.667,43.926-43.926c0-1.483-0.076-2.948-0.219-4.393
					C143.428,180.121,124.702,197.458,101.925,197.458z"/>
				
					
						<ellipse transform="matrix(0.895 -0.446 0.446 0.895 -55.2585 73.2613)" style="fill:#E54D25;" cx="128.005" cy="154.02" rx="7.077" ry="6.467"/>
					<path style="opacity:0.4;fill:#FFFFFF;" d="M125.245,149.508c3.498-1.743,7.625-0.565,9.218,2.632
						c0.193,0.387,0.338,0.787,0.441,1.192c-0.014-0.88-0.212-1.759-0.623-2.584c-1.593-3.197-5.72-4.375-9.218-2.632
						c-3.075,1.532-4.638,4.811-3.891,7.753C121.133,153.339,122.65,150.801,125.245,149.508z"/>
				
				
					
						<ellipse transform="matrix(0.895 -0.446 0.446 0.895 -62.2575 52.1263)" style="fill:#E54D25;" cx="79.607" cy="158.321" rx="9.714" ry="8.876"/>
					<path style="opacity:0.4;fill:#FFFFFF;" d="M75.819,152.127c4.802-2.393,10.467-0.776,12.653,3.612
						c0.265,0.531,0.464,1.08,0.605,1.636c-0.019-1.208-0.291-2.414-0.855-3.546c-2.187-4.388-7.852-6.005-12.653-3.612
						c-4.22,2.103-6.366,6.603-5.34,10.641C70.175,157.386,72.256,153.903,75.819,152.127z"/>
				
				
					
						<ellipse transform="matrix(0.1571 -0.9876 0.9876 0.1571 -69.7437 266.0249)" style="fill:#E54D25;" cx="120.979" cy="173.872" rx="4.674" ry="5.115"/>
					<path style="opacity:0.4;fill:#FFFFFF;" d="M121.251,170.059c2.79,0.444,4.723,2.87,4.317,5.42
						c-0.049,0.309-0.132,0.604-0.241,0.886c0.362-0.523,0.614-1.123,0.719-1.781c0.406-2.549-1.527-4.976-4.317-5.42
						c-2.452-0.39-4.748,0.882-5.545,2.926C117.223,170.585,119.181,169.729,121.251,170.059z"/>
				
				
					
						<ellipse transform="matrix(0.895 -0.446 0.446 0.895 -52.2191 63.1053)" style="fill:#E54D25;" cx="107.95" cy="142.485" rx="3.239" ry="2.96"/>
					<path style="opacity:0.4;fill:#FFFFFF;" d="M106.686,140.42c1.601-0.798,3.49-0.259,4.219,1.204
						c0.088,0.177,0.155,0.36,0.202,0.546c-0.006-0.403-0.097-0.805-0.285-1.183c-0.729-1.463-2.618-2.002-4.219-1.204
						c-1.407,0.701-2.123,2.202-1.781,3.548C104.804,142.174,105.498,141.012,106.686,140.42z"/>
				
				
					
						<ellipse transform="matrix(0.895 -0.446 0.446 0.895 -70.5235 64.5838)" style="fill:#E54D25;" cx="101.938" cy="182.11" rx="3.239" ry="2.96"/>
					<path style="opacity:0.4;fill:#FFFFFF;" d="M100.675,180.045c1.601-0.798,3.49-0.259,4.219,1.204
						c0.088,0.177,0.155,0.36,0.202,0.546c-0.006-0.403-0.097-0.805-0.285-1.182c-0.729-1.463-2.618-2.002-4.219-1.204
						c-1.407,0.701-2.123,2.202-1.781,3.548C98.793,181.798,99.487,180.637,100.675,180.045z"/>
				
				
					
						<ellipse transform="matrix(0.895 -0.446 0.446 0.895 -71.124 53.7361)" style="fill:#E54D25;" cx="78.593" cy="177.962" rx="1.08" ry="0.987"/>
					<path style="opacity:0.4;fill:#FFFFFF;" d="M78.172,177.273c0.534-0.266,1.163-0.086,1.407,0.402
						c0.029,0.059,0.052,0.12,0.067,0.182c-0.002-0.134-0.032-0.268-0.095-0.394c-0.243-0.488-0.873-0.667-1.407-0.402
						c-0.469,0.234-0.708,0.734-0.594,1.183C77.545,177.858,77.776,177.471,78.172,177.273z"/>
				
				
					
						<ellipse transform="matrix(0.895 -0.446 0.446 0.895 -76.0838 58.1774)" style="fill:#E54D25;" cx="85.548" cy="190.719" rx="1.08" ry="0.987"/>
					<path style="opacity:0.4;fill:#FFFFFF;" d="M85.127,190.031c0.534-0.266,1.163-0.086,1.407,0.402
						c0.029,0.059,0.052,0.12,0.067,0.182c-0.002-0.134-0.032-0.268-0.095-0.394c-0.243-0.488-0.873-0.667-1.407-0.402
						c-0.469,0.234-0.708,0.734-0.594,1.183C84.5,190.615,84.731,190.228,85.127,190.031z"/>
				
				
					
						<ellipse transform="matrix(0.895 -0.446 0.446 0.895 -74.9368 53.529)" style="fill:#E54D25;" cx="76.247" cy="185.958" rx="1.693" ry="1.547"/>
					<path style="opacity:0.4;fill:#FFFFFF;" d="M75.587,184.878c0.837-0.417,1.825-0.135,2.206,0.63
						c0.046,0.093,0.081,0.188,0.105,0.285c-0.003-0.211-0.051-0.421-0.149-0.618c-0.381-0.765-1.369-1.047-2.206-0.63
						c-0.736,0.367-1.11,1.151-0.931,1.855C74.603,185.795,74.966,185.188,75.587,184.878z"/>
				
				
					
						<ellipse transform="matrix(0.895 -0.446 0.446 0.895 -44.497 68.2155)" style="fill:#E54D25;" cx="122.667" cy="128.636" rx="1.693" ry="1.547"/>
					<path style="opacity:0.4;fill:#FFFFFF;" d="M122.006,127.556c0.837-0.417,1.825-0.135,2.206,0.63
						c0.046,0.093,0.081,0.188,0.105,0.285c-0.003-0.211-0.051-0.421-0.149-0.618c-0.381-0.765-1.369-1.047-2.206-0.63
						c-0.736,0.367-1.11,1.151-0.931,1.855C121.022,128.473,121.385,127.866,122.006,127.556z"/>
				
				
					
						<ellipse transform="matrix(0.895 -0.446 0.446 0.895 -73.576 57.9414)" style="fill:#E54D25;" cx="86.301" cy="185.273" rx="1.08" ry="0.987"/>
					<path style="opacity:0.4;fill:#FFFFFF;" d="M85.88,184.585c0.534-0.266,1.163-0.086,1.407,0.402
						c0.029,0.059,0.052,0.12,0.067,0.182c-0.002-0.134-0.032-0.268-0.095-0.394c-0.243-0.488-0.873-0.667-1.407-0.402
						c-0.469,0.234-0.708,0.734-0.594,1.183C85.253,185.169,85.484,184.782,85.88,184.585z"/>
				
				
					
						<ellipse transform="matrix(0.895 -0.446 0.446 0.895 -65.5011 78.2003)" style="fill:#E54D25;" cx="133.376" cy="178.249" rx="0.607" ry="0.555"/>
					<path style="opacity:0.4;fill:#FFFFFF;" d="M133.139,177.862c0.3-0.15,0.654-0.048,0.791,0.226
						c0.017,0.033,0.029,0.067,0.038,0.102c-0.001-0.075-0.018-0.151-0.053-0.222c-0.137-0.274-0.491-0.375-0.791-0.226
						c-0.264,0.131-0.398,0.413-0.334,0.665C132.787,178.19,132.917,177.973,133.139,177.862z"/>
				
				
					
						<ellipse transform="matrix(0.895 -0.446 0.446 0.895 -67.0319 78.5617)" style="fill:#E54D25;" cx="133.378" cy="181.681" rx="0.607" ry="0.555"/>
					<path style="opacity:0.4;fill:#FFFFFF;" d="M133.142,181.294c0.3-0.15,0.654-0.048,0.791,0.226
						c0.017,0.033,0.029,0.067,0.038,0.102c-0.001-0.075-0.018-0.151-0.053-0.222c-0.137-0.274-0.491-0.375-0.791-0.226
						c-0.264,0.131-0.398,0.413-0.334,0.665C132.789,181.623,132.919,181.405,133.142,181.294z"/>
				
				
					
						<ellipse transform="matrix(0.895 -0.446 0.446 0.895 -68.0675 74.9758)" style="fill:#E54D25;" cx="125.243" cy="182.088" rx="0.607" ry="0.555"/>
					<path style="opacity:0.4;fill:#FFFFFF;" d="M125.006,181.701c0.3-0.15,0.654-0.048,0.791,0.226
						c0.017,0.033,0.029,0.067,0.038,0.102c-0.001-0.075-0.018-0.151-0.053-0.222c-0.137-0.274-0.491-0.375-0.791-0.226
						c-0.264,0.131-0.398,0.413-0.334,0.665C124.653,182.03,124.783,181.812,125.006,181.701z"/>
				
				
					
						<ellipse transform="matrix(0.895 -0.446 0.446 0.895 -68.5193 77.8606)" style="fill:#E54D25;" cx="131.145" cy="184.491" rx="0.607" ry="0.555"/>
					<path style="opacity:0.4;fill:#FFFFFF;" d="M130.909,184.104c0.3-0.15,0.654-0.048,0.791,0.226
						c0.017,0.033,0.029,0.067,0.038,0.102c-0.001-0.075-0.018-0.151-0.053-0.222c-0.137-0.274-0.491-0.375-0.791-0.226
						c-0.264,0.131-0.398,0.413-0.334,0.665C130.556,184.432,130.686,184.215,130.909,184.104z"/>
				
				
					
						<ellipse transform="matrix(0.895 -0.446 0.446 0.895 -66.0988 79.1245)" style="fill:#E54D25;" cx="135.04" cy="179.981" rx="0.251" ry="0.229"/>
					<path style="opacity:0.4;fill:#FFFFFF;" d="M134.943,179.821c0.124-0.062,0.27-0.02,0.327,0.093
						c0.007,0.014,0.012,0.028,0.016,0.042c0-0.031-0.008-0.062-0.022-0.092c-0.057-0.113-0.203-0.155-0.327-0.093
						c-0.109,0.054-0.165,0.171-0.138,0.275C134.797,179.957,134.85,179.867,134.943,179.821z"/>
				
				
					
						<ellipse transform="matrix(0.895 -0.446 0.446 0.895 -68.1133 77.0193)" style="fill:#E54D25;" cx="129.561" cy="183.208" rx="0.251" ry="0.229"/>
					<path style="opacity:0.4;fill:#FFFFFF;" d="M129.463,183.048c0.124-0.062,0.27-0.02,0.327,0.093
						c0.007,0.014,0.012,0.028,0.016,0.042c0-0.031-0.008-0.062-0.022-0.092c-0.057-0.113-0.203-0.155-0.327-0.093
						c-0.109,0.054-0.165,0.171-0.138,0.275C129.317,183.183,129.371,183.093,129.463,183.048z"/>
				
				
					
						<ellipse transform="matrix(0.895 -0.446 0.446 0.895 -74.6815 71.7565)" style="fill:#E54D25;" cx="115.097" cy="194.529" rx="0.431" ry="0.394"/>
					<path style="opacity:0.4;fill:#FFFFFF;" d="M114.929,194.254c0.213-0.106,0.465-0.034,0.562,0.16
						c0.012,0.024,0.021,0.048,0.027,0.073c-0.001-0.054-0.013-0.107-0.038-0.158c-0.097-0.195-0.349-0.267-0.562-0.16
						c-0.187,0.093-0.283,0.293-0.237,0.473C114.678,194.488,114.77,194.333,114.929,194.254z"/>
				
				
					
						<ellipse transform="matrix(0.895 -0.446 0.446 0.895 -73.9028 67.9768)" style="fill:#E54D25;" cx="107.457" cy="190.985" rx="0.431" ry="0.394"/>
					<path style="opacity:0.4;fill:#FFFFFF;" d="M107.288,190.71c0.213-0.106,0.465-0.034,0.562,0.16
						c0.012,0.024,0.021,0.048,0.027,0.073c-0.001-0.054-0.013-0.107-0.038-0.157c-0.097-0.195-0.349-0.267-0.562-0.16
						c-0.187,0.093-0.283,0.293-0.237,0.473C107.038,190.944,107.13,190.789,107.288,190.71z"/>
				
				
					
						<ellipse transform="matrix(0.895 -0.446 0.446 0.895 -76.2941 67.3946)" style="fill:#E54D25;" cx="105.024" cy="195.774" rx="0.431" ry="0.394"/>
					<path style="opacity:0.4;fill:#FFFFFF;" d="M104.856,195.499c0.213-0.106,0.465-0.034,0.562,0.16
						c0.012,0.024,0.021,0.048,0.027,0.073c-0.001-0.054-0.013-0.107-0.038-0.157c-0.097-0.195-0.349-0.267-0.562-0.16
						c-0.187,0.093-0.283,0.293-0.237,0.473C104.605,195.733,104.698,195.578,104.856,195.499z"/>
				
				
					
						<ellipse transform="matrix(0.895 -0.446 0.446 0.895 -67.6727 60.2286)" style="fill:#E54D25;" cx="94.112" cy="173.876" rx="0.534" ry="0.488"/>
					<path style="opacity:0.4;fill:#FFFFFF;" d="M93.903,173.535c0.264-0.132,0.576-0.043,0.696,0.199
						c0.015,0.029,0.026,0.059,0.033,0.09c-0.001-0.066-0.016-0.133-0.047-0.195c-0.12-0.241-0.432-0.33-0.696-0.199
						c-0.232,0.116-0.35,0.363-0.294,0.585C93.593,173.825,93.707,173.633,93.903,173.535z"/>
				
				
					
						<ellipse transform="matrix(0.895 -0.446 0.446 0.895 -71.2068 77.5851)" style="fill:#E54D25;" cx="129.216" cy="190.062" rx="0.607" ry="0.555"/>
					<path style="opacity:0.4;fill:#FFFFFF;" d="M128.979,189.675c0.3-0.15,0.654-0.048,0.791,0.226
						c0.017,0.033,0.029,0.067,0.038,0.102c-0.001-0.075-0.018-0.151-0.053-0.222c-0.137-0.274-0.491-0.375-0.791-0.226
						c-0.264,0.131-0.398,0.413-0.334,0.665C128.627,190.004,128.757,189.786,128.979,189.675z"/>
				
				
					
						<ellipse transform="matrix(0.895 -0.446 0.446 0.895 -77.873 60.7589)" style="fill:#E54D25;" cx="90.138" cy="195.811" rx="1.08" ry="0.987"/>
					<path style="opacity:0.4;fill:#FFFFFF;" d="M89.717,195.122c0.534-0.266,1.163-0.086,1.407,0.402
						c0.029,0.059,0.052,0.12,0.067,0.182c-0.002-0.134-0.032-0.268-0.095-0.394c-0.243-0.488-0.873-0.667-1.407-0.402
						c-0.469,0.234-0.708,0.734-0.594,1.183C89.09,195.707,89.321,195.319,89.717,195.122z"/>
				
				
					
						<ellipse transform="matrix(0.895 -0.446 0.446 0.895 -62.8458 63.7026)" style="fill:#E54D25;" cx="103.905" cy="165.359" rx="1.08" ry="0.987"/>
					<path style="opacity:0.4;fill:#FFFFFF;" d="M103.484,164.671c0.534-0.266,1.163-0.086,1.407,0.402
						c0.029,0.059,0.052,0.12,0.067,0.182c-0.002-0.134-0.032-0.268-0.095-0.394c-0.243-0.488-0.873-0.667-1.407-0.402
						c-0.469,0.234-0.708,0.734-0.594,1.183C102.857,165.255,103.088,164.868,103.484,164.671z"/>
				
				
					
						<ellipse transform="matrix(0.895 -0.446 0.446 0.895 -48.6417 72.1802)" style="fill:#E54D25;" cx="129.017" cy="139.423" rx="1.08" ry="0.987"/>
					<path style="opacity:0.4;fill:#FFFFFF;" d="M128.596,138.735c0.534-0.266,1.163-0.086,1.407,0.402
						c0.029,0.059,0.052,0.12,0.067,0.182c-0.002-0.134-0.032-0.268-0.095-0.394c-0.243-0.488-0.873-0.667-1.407-0.402
						c-0.469,0.234-0.708,0.734-0.594,1.183C127.968,139.319,128.2,138.932,128.596,138.735z"/>
				
				
					
						<ellipse transform="matrix(0.895 -0.446 0.446 0.895 -54.6931 54.3037)" style="fill:#E54D25;" cx="88.015" cy="143.34" rx="1.08" ry="0.987"/>
					<path style="opacity:0.4;fill:#FFFFFF;" d="M87.593,142.652c0.534-0.266,1.163-0.086,1.407,0.402
						c0.029,0.059,0.052,0.12,0.067,0.182c-0.002-0.134-0.032-0.268-0.095-0.394c-0.243-0.488-0.873-0.667-1.407-0.402
						c-0.469,0.234-0.708,0.734-0.594,1.183C86.966,143.236,87.198,142.849,87.593,142.652z"/>
				
				
					
						<ellipse transform="matrix(0.895 -0.446 0.446 0.895 -62.5383 78.5079)" style="fill:#E54D25;" cx="135.511" cy="172.109" rx="1.08" ry="0.987"/>
					<path style="opacity:0.4;fill:#FFFFFF;" d="M135.09,171.42c0.534-0.266,1.163-0.086,1.407,0.402
						c0.029,0.059,0.052,0.12,0.067,0.182c-0.002-0.134-0.032-0.268-0.095-0.394c-0.243-0.488-0.873-0.667-1.407-0.402
						c-0.469,0.234-0.708,0.734-0.594,1.183C134.462,172.005,134.694,171.617,135.09,171.42z"/>
				
				
					
						<ellipse transform="matrix(0.895 -0.446 0.446 0.895 -72.5759 73.8056)" style="fill:#E54D25;" cx="120.503" cy="191.081" rx="1.08" ry="0.987"/>
					<path style="opacity:0.4;fill:#FFFFFF;" d="M120.081,190.393c0.534-0.266,1.163-0.086,1.407,0.402
						c0.029,0.059,0.052,0.12,0.067,0.182c-0.002-0.134-0.032-0.268-0.095-0.394c-0.243-0.488-0.873-0.667-1.407-0.402
						c-0.469,0.234-0.708,0.734-0.594,1.183C119.454,190.977,119.685,190.59,120.081,190.393z"/>
				
				
					<ellipse transform="matrix(0.866 -0.5 0.5 0.866 -56.3403 62.2632)" style="opacity:0.08;fill:#FFFFFF;" cx="88.015" cy="136.264" rx="16.501" ry="8.481"/>
			
		
	

</svg>
