<?xml version="1.0" encoding="utf-8"?>
<!-- Generator: Adobe Illustrator 27.5.0, SVG Export Plug-In . SVG Version: 6.00 Build 0)  -->
<svg version="1.1" xmlns="http://www.w3.org/2000/svg" xmlns:xlink="http://www.w3.org/1999/xlink" x="0px" y="0px"
	 viewBox="50 -75 500 500" style="enable-background:new 0 0 500 500;" xml:space="preserve" transform='scale(2)'>

	
	
		
		
			
				<path style="fill:#152F4C;" d="M382.196,136.532c-1.366-7.286-21.662-10.057-50.583-8.098
					c-9.031-19.377-30.317-30.961-52.298-26.842c-0.028,0.005-0.055,0.012-0.082,0.017c-0.017,0.003-0.034,0.005-0.052,0.008
					c-0.074,0.014-0.145,0.033-0.219,0.047c-0.555,0.108-1.106,0.227-1.653,0.353c-0.319,0.073-0.636,0.147-0.952,0.225
					c-0.131,0.033-0.261,0.07-0.391,0.105c-9.564,2.474-17.773,7.72-23.92,14.705c-0.005,0.006-0.01,0.012-0.015,0.017
					c-0.966,1.098-1.881,2.238-2.742,3.419c-0.013,0.018-0.026,0.037-0.04,0.055c-0.172,0.236-0.345,0.472-0.512,0.712
					c-0.143,0.087-0.299,0.178-0.439,0.263c-2.465,3.584-4.435,7.505-5.858,11.649c0.102-0.081,0.205-0.155,0.307-0.236
					c-0.087,0.248-0.176,0.495-0.259,0.745c-0.1,0.302-0.195,0.606-0.29,0.91c-0.113,0.365-0.221,0.732-0.326,1.101
					c-0.097,0.343-0.193,0.686-0.283,1.031c-0.111,0.426-0.218,0.853-0.317,1.282c-0.089,0.075-0.185,0.153-0.271,0.227
					c-0.291,1.297-0.52,2.612-0.702,3.939c0.075-0.057,0.153-0.11,0.229-0.167c-0.038,0.265-0.071,0.53-0.104,0.796
					c-0.027,0.218-0.055,0.435-0.079,0.654c-0.027,0.241-0.051,0.482-0.074,0.724c-0.068,0.026-0.144,0.056-0.211,0.082
					c-0.044,0.48-0.076,0.963-0.107,1.446c-11.5,3.605-21.296,7.43-28.714,11.192c0.118-0.069,0.229-0.139,0.349-0.208
					c-10.577,5.31-16.437,10.505-15.634,14.786c0.225,1.2,0.964,2.277,2.169,3.231c6.46,5.146,26.482,6.713,52.88,4.552
					c1.115,1.35,2.303,2.63,3.552,3.844l-0.104,0.037c0.63,0.609,1.275,1.2,1.936,1.773l0.099-0.031
					c1.974,1.721,4.078,3.287,6.303,4.664c-0.022,0.008-0.046,0.016-0.068,0.024c2.573,1.58,5.296,2.921,8.134,3.996l0.028-0.011
					c8.002,3.069,16.924,4.037,25.966,2.342c0.855-0.16,1.699-0.345,2.534-0.548c0.268-0.065,0.531-0.143,0.797-0.213
					c0.565-0.148,1.129-0.297,1.684-0.463c0.303-0.091,0.6-0.193,0.9-0.29c0.512-0.165,1.022-0.331,1.525-0.512
					c0.303-0.109,0.602-0.227,0.902-0.341c0.494-0.189,0.985-0.381,1.47-0.585c0.288-0.121,0.573-0.248,0.858-0.375
					c0.491-0.218,0.978-0.442,1.459-0.676c0.264-0.128,0.526-0.259,0.788-0.392c0.499-0.254,0.992-0.516,1.48-0.786
					c0.231-0.128,0.461-0.256,0.69-0.387c0.522-0.3,1.035-0.612,1.544-0.931c0.182-0.115,0.366-0.227,0.547-0.344
					c0.571-0.369,1.131-0.751,1.684-1.143c0.109-0.077,0.221-0.152,0.33-0.23c3.966-2.86,7.45-6.293,10.347-10.161
					c-0.049,0.113-0.093,0.228-0.142,0.34c3.233-4.232,5.746-8.997,7.434-14.089c30.099-8.939,49.963-19.52,48.527-27.178
					c-0.002-0.01-0.006-0.018-0.008-0.028C382.197,136.55,382.198,136.541,382.196,136.532z M336.125,156.993l0.219-1.415
					c0,0-0.265,0.093-0.767,0.263c0.774-5.158,0.725-10.529-0.291-15.945c-0.537-2.866-1.332-5.616-2.332-8.249
					c18.119-0.409,30.255,1.96,31.199,6.998C365.125,143.827,354.031,150.663,336.125,156.993z M240.058,149.064
					c0.003,0.352,0.007,0.704,0.017,1.057c0.005,0.163,0.013,0.327,0.02,0.491c0.025,0.626,0.061,1.253,0.111,1.881
					c0.002,0.029,0.003,0.058,0.005,0.087l-0.063,0.019c0.079,0.95,0.195,1.904,0.332,2.859l0.052-0.016
					c0.101,0.715,0.213,1.43,0.347,2.147c0.565,3.013,1.411,5.901,2.486,8.656c-0.009,0.004-0.018,0.008-0.027,0.011
					c0.355,0.899,0.744,1.778,1.149,2.646c0.056,0.12,0.111,0.24,0.168,0.36c0.072,0.152,0.139,0.307,0.213,0.458l0.012-0.004
					c0.496,1.021,1.025,2.02,1.587,2.996c-0.06,0.002-0.12,0.004-0.18,0.006l0.622,1.088c-19.308,0.652-32.379-1.699-33.36-6.935
					C212.606,161.836,223.044,155.24,240.058,149.064z"/>
				<circle style="fill:#48B9A5;" cx="286.36" cy="147.288" r="47.958"/>
				<path style="opacity:0.47;fill:#2C9681;" d="M296.089,100.302c-22.622,5.082-39.572,13.711-49.447,19.749
					c-2.465,3.584-4.435,7.505-5.858,11.649c21.19-16.82,43.635-25.819,59.013-30.446
					C298.577,100.891,297.342,100.568,296.089,100.302z"/>
				<path style="opacity:0.47;fill:#2C9681;" d="M316.974,110.483c-2.178-1.824-4.518-3.444-6.981-4.857
					c-41.037,9.793-61.799,23.612-70.647,31.135c-0.291,1.297-0.52,2.612-0.702,3.939
					C264.847,120.986,300.693,113.161,316.974,110.483z"/>
				<path style="opacity:0.47;fill:#2C9681;" d="M322.89,116.403c-32.88,6.881-70.336,20.868-84.485,26.385
					c-0.12,1.292-0.194,2.594-0.208,3.906l87.355-26.809C324.716,118.681,323.828,117.519,322.89,116.403z"/>
				<path style="opacity:0.47;fill:#2C9681;" d="M328.647,124.686l-90.156,26.446c0.079,0.95,0.195,1.904,0.332,2.859l90.879-27.194
					C329.367,126.083,329.015,125.378,328.647,124.686z"/>
				<path style="opacity:0.47;fill:#2C9681;" d="M241.682,164.789c0.466,1.182,0.978,2.335,1.53,3.463l89.803-31.798
					c-0.624-2.735-1.471-5.365-2.521-7.873C291.617,143.736,257.504,158.058,241.682,164.789z"/>
				<path style="opacity:0.47;fill:#2C9681;" d="M248.088,176.392l86.002-27.74c0.035-1.231,0.021-2.47-0.04-3.715l-89.126,26.811
					C245.888,173.367,246.952,174.911,248.088,176.392z"/>
				<path style="opacity:0.47;fill:#2C9681;" d="M254.732,183.441l77.973-24.691c0.455-1.834,0.81-3.701,1.045-5.598l-80.955,28.516
					C253.426,182.277,254.071,182.869,254.732,183.441z"/>
				<path style="opacity:0.47;fill:#2C9681;" d="M269.201,192.094l59.816-23.366c0.804-1.6,1.521-3.247,2.144-4.934
					c-15.227,5.256-53.302,18.408-70.094,24.303C263.639,189.678,266.362,191.018,269.201,192.094z"/>
				<path style="opacity:0.24;fill:#F4F6EB;" d="M277.659,100.126c-16.178,3.032-28.919,13.859-35.081,27.868
					c6.943-9.087,17.137-15.74,29.262-18.013c26.033-4.879,51.092,12.27,55.972,38.303c1.847,9.856,0.532,19.569-3.222,28.103
					c7.964-10.424,11.648-24.051,9.041-37.959C328.751,112.395,303.692,95.246,277.659,100.126z"/>
				<path style="opacity:0.67;fill:#2C9681;" d="M303.728,183.662c-26.033,4.879-51.092-12.27-55.972-38.303
					c-2.207-11.778,0.106-23.35,5.699-32.951c-11.457,10.829-17.354,27.067-14.234,43.713c4.879,26.033,29.938,43.182,55.972,38.303
					c14.255-2.672,25.834-11.401,32.604-23.021C321.337,177.511,313.115,181.903,303.728,183.662z"/>
				<path style="fill:#1C3A60;" d="M244.632,171.25l1.674,2.928l40.144-4.112l47.66-12.22l0.578-3.735
					C334.688,154.111,289.352,170.016,244.632,171.25z"/>
				
					<path style="fill:#2C9681;" d="M329.95,127.024c0.476,1.029,0.907,2.085,1.312,3.157c18.139-0.413,30.29,1.956,31.235,6.997
						c0.987,5.266-10.482,12.242-28.903,18.657c-12.028,4.188-27.017,8.138-43.445,11.217c-16.428,3.079-31.83,4.825-44.558,5.276
						c-19.494,0.691-32.711-1.658-33.698-6.924c-0.945-5.042,9.524-11.65,26.581-17.833c-0.011-1.145,0.009-2.286,0.08-3.418
						c-27.677,8.648-45.6,18.583-44.234,25.87c1.437,7.666,23.83,10.333,55.177,7.753c12.666-1.043,26.791-2.941,41.59-5.714
						c14.799-2.774,28.653-6.119,40.837-9.734c30.154-8.946,50.062-19.541,48.625-27.207
						C379.184,127.833,358.881,125.063,329.95,127.024z"/>
					<path style="opacity:0.24;fill:#F4F6EB;" d="M329.94,126.968c0.134,0.289,0.257,0.585,0.384,0.879
						c25.06-1.06,42.17,1.824,43.42,8.492c1.437,7.666-18.471,18.261-48.625,27.207c-11.245,3.336-23.923,6.437-37.443,9.076
						c1.132-0.203,2.261-0.402,3.402-0.616c14.799-2.774,28.653-6.119,40.837-9.734c30.154-8.946,50.062-19.541,48.625-27.207
						C379.174,127.777,358.87,125.007,329.94,126.968z"/>
					<path style="opacity:0.24;fill:#F4F6EB;" d="M336.487,159.844c-12.184,3.615-26.038,6.96-40.837,9.734
						c-14.799,2.774-28.924,4.672-41.59,5.714c-31.347,2.581-53.74-0.087-55.177-7.753c-0.678-3.615,3.397-7.883,11.05-12.321
						c-10.577,5.31-16.437,10.505-15.634,14.786c1.437,7.666,23.83,10.333,55.177,7.753c12.666-1.043,26.791-2.941,41.59-5.714
						c14.799-2.774,28.653-6.119,40.837-9.734c15.929-4.726,28.995-9.911,37.569-14.883
						C361.109,151.624,349.799,155.895,336.487,159.844z"/>
				
			
			<path style="opacity:0.09;fill:#F4F6EB;" d="M304.037,159.466c-26.033,4.879-51.093-12.27-55.972-38.303
				c-0.133-0.709-0.242-1.417-0.343-2.124c-7.427,10.282-10.797,23.464-8.276,36.914c4.879,26.033,29.938,43.182,55.972,38.303
				c25.324-4.746,42.234-28.589,38.646-53.847C327.116,150.027,316.62,157.107,304.037,159.466z"/>
		
		
	
	

</svg>