<?xml version="1.0" encoding="utf-8"?>
<!-- Generator: Adobe Illustrator 27.5.0, SVG Export Plug-In . SVG Version: 6.00 Build 0)  -->
<svg version="1.1" xmlns="http://www.w3.org/2000/svg" xmlns:xlink="http://www.w3.org/1999/xlink" x="0px" y="0px"
	 viewBox="600 800 500 500" style="enable-background:new 0 0 500 500;" xml:space="preserve">

<g id="OBJECTS" transform='scale(3)'>
	
	<g>
		
		
		
		
		<g>
			<path style="fill:#152F4C;" d="M303.556,406.616c0.092-0.106,0.185-0.211,0.275-0.319c0.299-0.354,0.59-0.714,0.876-1.078
				c0.09-0.114,0.179-0.227,0.268-0.342c0.287-0.372,0.567-0.748,0.842-1.129c0.075-0.104,0.149-0.209,0.223-0.314
				c0.283-0.401,0.561-0.806,0.83-1.218c0.046-0.07,0.089-0.141,0.134-0.21c1.542-2.389,2.845-4.945,3.878-7.638
				c0.001,0.001,0.002,0.002,0.003,0.003c0.014-0.038,0.026-0.076,0.041-0.114c0.168-0.442,0.327-0.889,0.48-1.339
				c0.059-0.172,0.118-0.344,0.175-0.518c0.126-0.386,0.247-0.775,0.362-1.166c0.087-0.293,0.169-0.587,0.25-0.883
				c0.075-0.277,0.15-0.555,0.219-0.835c0.121-0.483,0.232-0.97,0.336-1.46c0.022-0.107,0.047-0.212,0.068-0.319
				c0.54-2.64,0.838-5.367,0.838-8.168c0-0.736-0.026-1.465-0.066-2.19c-0.008-0.172-0.025-0.341-0.036-0.513
				c-0.026-0.393-0.051-0.786-0.089-1.176c-1.845-20.614-18.684-36.888-39.499-37.765c-0.205-0.009-0.413-0.009-0.619-0.016
				c-0.383-0.011-0.764-0.029-1.15-0.029c-0.024,0-0.048,0.002-0.072,0.002c-0.027,0-0.054-0.002-0.082-0.002
				c-0.264,0-0.524,0.019-0.787,0.024c-0.441,0.01-0.883,0.016-1.321,0.04c-0.536,0.028-1.067,0.074-1.597,0.122
				c-0.176,0.016-0.354,0.029-0.529,0.048c-0.611,0.063-1.217,0.142-1.82,0.232c-0.063,0.01-0.126,0.019-0.189,0.029
				c-1.172,0.18-2.334,0.391-3.472,0.666c0.002,0.011,0.005,0.023,0.007,0.034c-6.726,1.648-12.809,4.937-17.799,9.428
				c-0.002-0.084-0.009-0.167-0.01-0.252c-8.453,7.611-13.773,18.652-13.773,30.943c0,0.025,0.002,0.049,0.002,0.074
				c0,0.019-0.002,0.038-0.002,0.057c0.001,0.002,0.002,0.003,0.003,0.005c0,0.042-0.003,0.083-0.003,0.125
				c0,7.893,2.193,15.271,6,21.557c1.385,2.286,2.983,4.427,4.767,6.396c0.446,0.492,0.904,0.974,1.372,1.444
				c1.406,1.411,2.913,2.72,4.509,3.917c1.064,0.798,2.167,1.546,3.306,2.24c3.089,1.883,6.448,3.36,9.997,4.386
				c0.056,0.016,0.112,0.032,0.168,0.048c0.475,0.135,0.952,0.265,1.434,0.384c0.074,0.018,0.15,0.034,0.224,0.052
				c0.764,0.183,1.536,0.344,2.316,0.484c0.261,0.047,0.521,0.098,0.784,0.14c0.291,0.047,0.585,0.085,0.878,0.125
				c0.352,0.049,0.704,0.095,1.059,0.135c0.264,0.029,0.529,0.056,0.794,0.081c0.414,0.038,0.83,0.069,1.247,0.095
				c0.218,0.014,0.436,0.03,0.655,0.04c0.641,0.03,1.284,0.049,1.933,0.049c0.001,0,0.001,0,0.002,0h0l0,0c0,0,0,0,0,0s0,0,0,0
				c0,0,0.001,0,0.001,0c0.676,0,1.348-0.019,2.016-0.051c0.14-0.007,0.279-0.018,0.419-0.026c0.019-0.001,0.038-0.003,0.057-0.004
				c0.062-0.004,0.123-0.01,0.184-0.014c0.447-0.029,0.892-0.059,1.335-0.102c0.259-0.025,0.516-0.057,0.774-0.087
				c0.4-0.046,0.799-0.095,1.196-0.152c0.271-0.039,0.54-0.083,0.81-0.128c0.38-0.063,0.758-0.13,1.134-0.203
				c0.272-0.053,0.544-0.108,0.814-0.166c0.371-0.08,0.739-0.166,1.105-0.256c0.268-0.065,0.535-0.13,0.801-0.201
				c0.37-0.098,0.736-0.206,1.102-0.314c0.254-0.075,0.509-0.147,0.761-0.227c0.395-0.125,0.784-0.262,1.173-0.398
				c0.217-0.076,0.436-0.146,0.651-0.226c0.582-0.215,1.158-0.443,1.727-0.683c0.232-0.098,0.458-0.206,0.687-0.308
				c0.348-0.154,0.696-0.307,1.039-0.471c0.276-0.132,0.547-0.272,0.82-0.41c0.288-0.145,0.576-0.29,0.859-0.441
				c0.287-0.153,0.57-0.314,0.853-0.474c0.261-0.147,0.521-0.296,0.778-0.449c0.29-0.173,0.577-0.349,0.863-0.529
				c0.24-0.151,0.478-0.304,0.715-0.46c0.292-0.192,0.582-0.386,0.869-0.585c0.216-0.15,0.429-0.304,0.642-0.458
				c0.298-0.216,0.596-0.432,0.889-0.655c0.179-0.136,0.353-0.278,0.529-0.417c0.317-0.251,0.635-0.5,0.945-0.76
				c0.077-0.064,0.15-0.132,0.227-0.197c1.209-1.028,2.357-2.124,3.441-3.283c0.068-0.073,0.139-0.144,0.207-0.218
				C302.938,407.329,303.248,406.974,303.556,406.616z"/>
			<g>
				<ellipse style="fill:#0E75BA;" cx="271.383" cy="376.282" rx="41.445" ry="41.573"/>
				<path style="fill:#4FB7A5;" d="M238.263,381.256c2.478,0.242,4.972-0.106,7.438-0.453c0.647-0.091,1.32-0.192,1.855-0.568
					c0.534-0.375,0.874-1.115,0.585-1.7c-0.299-0.606-1.07-0.767-1.737-0.876c-3.916-0.637-7.733-1.876-11.277-3.659
					c-1.565-0.787-3.25-1.683-4.936-2.172c-0.156,1.422-0.244,2.863-0.252,4.324c0.497,0.765,1.008,1.522,1.626,2.169
					C233.285,380.122,235.784,381.015,238.263,381.256z"/>
				<path style="fill:#4FB7A5;" d="M241.663,369.807c4.917,0.955,9.859,4.347,14.51,2.488c3.325-1.329,5.162-5.077,5.323-8.654
					c0.098-2.165-0.266-4.495,0.815-6.373c0.922-1.602,2.68-2.484,4.215-3.513c3.465-2.323,6.139-5.805,7.489-9.753
					c0.826-2.415,1.157-5.081,0.404-7.519c-0.152-0.492-0.366-0.965-0.612-1.422c-0.806-0.047-1.605-0.122-2.424-0.122
					c-20.076,0-36.813,14.272-40.634,33.222c0.844,0.391,1.747,0.68,2.645,0.846C236.12,369.512,238.942,369.279,241.663,369.807z"
					/>
				<path style="fill:#4FB7A5;" d="M310.276,362.15c-6.21-0.123-12.452,3.078-16.992,7.511c-0.526,0.514-1.05,1.065-1.305,1.754
					c-0.819,2.212,1.397,4.311,3.421,5.524c2.632,1.577,5.443,2.964,7.584,5.163c2.277,2.338,3.632,5.43,5.792,7.876
					c0.387,0.438,0.831,0.84,1.297,1.22c1.762-4.602,2.769-9.579,2.769-14.801C312.842,371.383,311.906,366.599,310.276,362.15z"/>
				<path style="fill:#4FB7A5;" d="M287.953,399.591c0.743-1.381,2.047-2.428,2.631-3.883c1.249-3.114-1.243-6.409-3.735-8.656
					c-5.284-4.765-11.703-8.672-18.787-9.337c-7.085-0.665-14.828,2.551-17.973,8.933c-2.222,4.509-1.927,9.778-2.302,14.79
					c-0.213,2.846-0.632,5.69-0.654,8.535c6.824,4.938,15.185,7.883,24.252,7.883c3.296,0,6.487-0.425,9.561-1.152
					c2.977-3.041,5.261-6.53,5.841-10.707C287.086,403.831,286.918,401.516,287.953,399.591z"/>
				<path style="opacity:0.2;fill:#F4F6EB;" d="M271.229,334.708c-3.347,0-6.598,0.409-9.716,1.16
					c3.702,19.153,20.502,33.618,40.678,33.618c3.347,0,6.598-0.409,9.716-1.16C308.206,349.173,291.406,334.708,271.229,334.708z"
					/>
				<path style="opacity:0.11;fill:#F4F6EB;" d="M285.14,385.994c-22.669,0-41.076-18.26-41.428-40.915
					c-8.453,7.611-13.773,18.652-13.773,30.943c0,22.96,18.556,41.573,41.445,41.573c22.889,0,41.445-18.613,41.445-41.573
					c0-0.221-0.013-0.438-0.017-0.658C305.474,381.97,295.777,385.994,285.14,385.994z"/>
				<path style="opacity:0.49;fill:#0E75BA;" d="M275.002,407.106c-22.889,0-41.445-18.613-41.445-41.573
					c0-2.67,0.261-5.279,0.741-7.809c-2.784,5.587-4.36,11.886-4.36,18.558c0,22.96,18.556,41.573,41.445,41.573
					c20.227,0,37.06-14.539,40.704-33.764C305.29,397.733,291.241,407.106,275.002,407.106z"/>
			</g>
		</g>
	</g>
</g>
</svg>
