<?xml version="1.0" encoding="utf-8"?>
<!-- Generator: Adobe Illustrator 27.5.0, SVG Export Plug-In . SVG Version: 6.00 Build 0)  -->
<svg version="1.1" xmlns="http://www.w3.org/2000/svg" xmlns:xlink="http://www.w3.org/1999/xlink" x="0px" y="0px"
	 viewBox="0 0 500 500" style="enable-background:new 0 0 500 500;" xml:space="preserve">

<g id="OBJECTS">
	
	<g>
		
		
		<g>
			<path style="fill:#152F4C;" d="M235.963,268.931c0-0.006-0.001-0.012-0.001-0.019c0-0.006,0.003-0.012,0.003-0.018
				c0.294-4.745-14.534-9.817-36.751-13.388c-0.112-0.596-0.226-1.192-0.365-1.78c-0.011,0.002-0.021,0.006-0.032,0.008
				c-0.429-1.82-0.99-3.598-1.68-5.322c0.009-0.004,0.019-0.007,0.028-0.011c-1.629-4.065-3.968-7.814-6.891-11.081
				c-0.007-0.008-0.014-0.016-0.021-0.024c-0.19-0.211-0.374-0.427-0.568-0.635c-0.006,0.003-0.012,0.007-0.018,0.01
				c-2.293-2.448-4.922-4.608-7.85-6.385c0.002-0.003,0.004-0.005,0.006-0.008c-0.431-0.261-0.874-0.505-1.317-0.749
				c-0.073-0.041-0.144-0.084-0.218-0.124c-0.319-0.173-0.646-0.335-0.972-0.499c-0.282-0.143-0.563-0.288-0.85-0.424
				c-0.206-0.097-0.416-0.188-0.625-0.282c-0.425-0.192-0.852-0.379-1.286-0.557c-0.12-0.049-0.241-0.094-0.361-0.142
				c-0.526-0.208-1.058-0.406-1.597-0.592c-0.029-0.01-0.057-0.022-0.085-0.032c-0.001,0.001-0.002,0.001-0.003,0.002
				c-0.971-0.332-1.958-0.636-2.971-0.892c-5.562-1.403-11.145-1.478-16.421-0.43c0.022-0.049,0.041-0.099,0.062-0.147
				c-12.461,2.464-23.176,11.218-27.801,23.622c-0.055,0.145-0.116,0.287-0.169,0.433c-0.025,0.07-0.046,0.142-0.071,0.212
				c-0.139,0.395-0.273,0.793-0.4,1.195c-0.042,0.133-0.092,0.263-0.133,0.397c-0.141,0.459-0.266,0.927-0.39,1.395
				c-0.028,0.106-0.065,0.208-0.092,0.314c-0.006,0.024-0.01,0.048-0.016,0.072c-0.006,0.024-0.014,0.047-0.02,0.071
				c-1.106,4.384-1.389,8.784-0.947,13.034c0.116,1.116,0.288,2.22,0.503,3.312c-14.213-2.767-23.298-6.307-23.091-9.649
				c0.204-3.289,9.348-5.662,23.41-6.68c0.201-0.714,0.424-1.419,0.684-2.11c-9.467,0.332-17.666,1.09-24.025,2.208
				c0.102-0.024,0.199-0.048,0.303-0.072c-8.989,1.549-14.38,3.806-14.554,6.599c-0.049,0.783,0.315,1.575,1.055,2.367
				c3.825,4.123,17.859,8.267,37.212,11.274c0.344,1.102,0.736,2.188,1.179,3.25c0.462,1.107,0.976,2.191,1.54,3.248
				c0.282,0.528,0.577,1.05,0.884,1.564c0.614,1.028,1.277,2.027,1.986,2.993c0.71,0.966,1.466,1.898,2.267,2.794
				c0.801,0.896,1.646,1.755,2.534,2.573c1.775,1.636,3.719,3.11,5.813,4.391c2.094,1.28,4.339,2.368,6.717,3.231
				c1.189,0.432,2.411,0.808,3.663,1.124c0.006,0.002,0.013,0.003,0.019,0.004c0.006,0.001,0.011,0.003,0.017,0.005
				c0.591,0.149,1.183,0.281,1.775,0.399c0.162,0.033,0.324,0.057,0.487,0.088c0.197,0.037,0.393,0.07,0.589,0.104
				c0.222,0.038,0.444,0.08,0.665,0.113c0.354,0.054,0.708,0.096,1.062,0.14c0.058,0.007,0.115,0.016,0.173,0.023
				c0.177,0.021,0.354,0.044,0.531,0.063c0.365,0.038,0.729,0.066,1.093,0.093c0.136,0.01,0.273,0.027,0.41,0.035
				c0.006-0.001,0.011-0.004,0.017-0.005c0.254,0.016,0.509,0.038,0.763,0.049c0.096,0.004,0.191,0.003,0.287,0.006
				c0.672,0.023,1.342,0.027,2.009,0.014c0.206-0.004,0.412-0.011,0.618-0.018c0.622-0.022,1.241-0.06,1.857-0.113
				c0.141-0.012,0.283-0.02,0.425-0.034c0.761-0.074,1.516-0.171,2.267-0.292c0.108-0.017,0.215-0.04,0.323-0.058
				c0.647-0.11,1.29-0.237,1.928-0.38c0.164-0.037,0.328-0.074,0.492-0.113c0.7-0.167,1.395-0.349,2.082-0.556
				c0.027-0.008,0.055-0.015,0.082-0.023c0.017-0.005,0.035-0.009,0.052-0.015c-0.007,0.008-0.013,0.017-0.021,0.025
				c4.113-1.245,7.977-3.184,11.42-5.722c0.003-0.014,0.005-0.029,0.008-0.043c1.112-0.822,2.174-1.712,3.192-2.655
				c0.047-0.043,0.093-0.087,0.14-0.131c2.93-2.743,5.441-5.97,7.387-9.607c0.013,0.001,0.025,0.005,0.037,0.006
				c0.393-0.734,0.754-1.489,1.099-2.255C219.719,277.003,235.663,273.77,235.963,268.931z M199.556,257.713
				c13.792,2.745,22.547,6.223,22.343,9.507c-0.206,3.329-9.572,5.719-23.924,6.716c0.035-0.107,0.075-0.211,0.109-0.318
				c-0.01-0.008-0.021-0.016-0.031-0.024c0.224-0.708,0.434-1.424,0.618-2.154c1.11-4.4,1.39-8.815,0.941-13.08
				c0.011-0.004,0.022-0.008,0.033-0.012C199.623,258.135,199.583,257.926,199.556,257.713z"/>
			<g>
				<g>
					<circle style="fill:#0E75BA;" cx="161.177" cy="260.28" r="37.429"/>
					<path style="opacity:0.12;fill:#F4F6EB;" d="M170.143,224.079c-0.534-0.135-1.068-0.251-1.603-0.362
						c-0.851,1.921-1.561,3.935-2.093,6.041c-5.058,20.043,7.09,40.392,27.134,45.45c0.534,0.135,1.068,0.251,1.603,0.362
						c0.851-1.921,1.561-3.935,2.093-6.041C202.334,249.485,190.186,229.137,170.143,224.079z"/>
					<g>
						<path style="fill:#0F5BB7;" d="M169.304,285.546c1.611-8.437-3.44-17.665-11.416-20.854c-1.602-0.641-3.285-1.056-4.971-1.418
							c-1.956-0.42-3.941-0.773-5.942-0.761c-8.365,0.048-15.469,6.454-19.619,13.73c1.222,2.59,2.743,5.031,4.52,7.279
							c0.22-0.389,0.415-0.798,0.611-1.191c2.356-4.722,5.023-8.052,9.158-11.33c1.329-1.053,3.959-2.525,5.577-3.03
							c1.424-0.444,2.95-0.457,4.435-0.31c3.503,0.346,6.983,1.608,9.592,3.97c2.61,2.362,4.25,5.896,3.915,9.4
							c-0.161,1.682-0.752,3.289-1.358,4.866c-0.791,2.057-1.723,4.231-3.578,5.422c-2.535,1.627-5.93,0.854-8.6-0.539
							c-2.051-1.07-4.035-2.615-4.752-4.815c-0.717-2.2,0.386-5.077,2.651-5.549c1.207-0.252,2.757,0.623,2.536,1.835
							c-0.074,0.402-0.328,0.752-0.416,1.151c-0.289,1.305,0.382,2.712,2.77,2.271c1.848-0.578,2.689-3.362,2.5-5.289
							c-0.188-1.927-1.404-3.628-2.889-4.87c-2.948-2.465-7.728-3.22-10.516-0.574c-0.992,0.941-1.625,2.193-2.171,3.447
							c-0.724,1.664-1.335,3.404-1.48,5.213c-0.31,3.883,1.643,7.519,4.587,10.152c2.381,1.19,4.921,2.151,7.609,2.83
							c2.265,0.572,4.534,0.912,6.784,1.058C164.235,296.191,168.249,291.07,169.304,285.546z"/>
					</g>
					<g>
						<path style="fill:#0F5BB7;" d="M163.25,257.976c-1.18,1.145,1.235,2.737,2.476,3.585c1.241,0.848,2.653,1.439,3.829,2.375
							c1.586,1.261,4.274,3.634,5.176,5.448c2.388,4.801,2.359,9.548,2.062,14.902c-0.241,4.331-1.856,8.683-4.773,11.84
							c4.113-1.245,7.977-3.184,11.42-5.722c1.523-6.657,1.269-13.78-1.637-19.921C178.434,263.363,165.735,255.897,163.25,257.976z
							"/>
					</g>
					<g>
						<path style="fill:#0F5BB7;" d="M150.005,255.048c-0.072-2.108-8.925-1.661-13.17,0.01c-4.824,1.899-9.243,4.807-12.91,8.47
							c0.175,2.016,0.505,4.001,0.996,5.937c2.338-2.757,5.184-5.118,8.253-7.044C138.374,259.158,150.143,257.895,150.005,255.048z
							"/>
					</g>
					<g style="opacity:0.58;">
						<path style="fill:#0F5BB7;" d="M148.141,236.377c4.855,3.306,11.181,4.151,16.885,2.751c5.704-1.4,10.774-4.919,14.528-9.436
							c0.372-0.448,0.733-0.922,1.067-1.413c-2.269-1.374-4.716-2.515-7.313-3.399c-3.483,2.619-7.661,4.312-11.994,4.793
							c-2.755,0.306-5.652,0.113-8.108-1.171c-1.579-0.825-2.928-2.17-3.693-3.76c-2.743,0.906-5.368,2.12-7.821,3.62
							C142.996,231.572,145.268,234.42,148.141,236.377z"/>
					</g>
					<g style="opacity:0.58;">
						<path style="fill:#0F5BB7;" d="M170.483,250.996c8.687,0.06,17.485-1.265,25.48-4.597c-1.738-4.338-4.276-8.323-7.48-11.739
							c-3.012,1.751-5.94,3.666-9.062,5.214c-11.131,5.519-24.545,5.966-36.224,1.727c-3.812-1.384-7.471-3.234-11.271-4.617
							c-1.769,2.22-3.302,4.658-4.546,7.293c4.371,0.331,8.796,1.425,13.073,2.438C150.313,249.05,160.35,250.926,170.483,250.996z"
							/>
					</g>
					<g>
						<path style="fill:#0F5BB7;" d="M191.316,265.379c-0.432-1.924,0.266-3.986,1.525-5.504c1.259-1.518,3.022-2.544,4.859-3.261
							c0.245-0.096,0.494-0.183,0.743-0.269c-0.166-1.564-0.439-3.106-0.796-4.622c-2.472,0.524-4.844,1.391-6.966,2.773
							c-4.68,3.047-7.798,8.961-6.275,14.335c0.649,2.29,2.063,4.309,3.769,5.969c1.216,1.183,2.615,2.217,4.217,2.774
							c0.586,0.204,1.195,0.332,1.811,0.399c1.071-2.002,1.971-4.126,2.678-6.359C194.532,269.787,191.946,268.184,191.316,265.379z
							"/>
					</g>
					<g>
						<path style="fill:#0F5BB7;" d="M135.366,252.394c0.79-0.364,1.669-1.032,1.505-1.887c-0.102-0.532-0.59-0.901-1.082-1.128
							c-1.582-0.73-3.423-0.51-5.139-0.21c-1.873,0.328-3.764,0.765-5.569,1.389c-0.052,0.192-0.111,0.379-0.16,0.572
							c-0.364,1.443-0.629,2.888-0.818,4.328c0.79-0.267,1.597-0.493,2.399-0.683C129.486,254.069,132.581,253.676,135.366,252.394z
							"/>
					</g>
					<path style="opacity:0.12;fill:#F4F6EB;" d="M178.967,275.015c-20.043-5.058-32.191-25.406-27.134-45.45
						c0.542-2.148,1.27-4.199,2.144-6.155c-13.748,2.719-25.398,13.078-29.055,27.569c-5.058,20.043,7.09,40.392,27.134,45.45
						c17.895,4.516,36.024-4.69,43.306-20.979C190.093,276.492,184.519,276.416,178.967,275.015z"/>
					<path style="opacity:0.58;fill:#0F5BB7;" d="M160.02,290.123c-20.043-5.058-32.192-25.406-27.134-45.45
						c1.615-6.401,4.795-11.992,9.022-16.479c-8.184,4.915-14.503,12.94-17.023,22.928c-5.058,20.043,7.09,40.392,27.134,45.45
						c13.642,3.442,27.42-1.091,36.427-10.654C180.207,290.865,170.076,292.66,160.02,290.123z"/>
				</g>
				<g>
					<path style="fill:#0F5BB7;" d="M197.872,253.518c0.173,0.718,0.307,1.446,0.419,2.179c13.829,2.747,22.61,6.231,22.406,9.52
						c-0.213,3.436-10.182,5.872-25.321,6.808c-9.884,0.611-21.971,0.583-34.989-0.224c-13.018-0.807-25.016-2.272-34.749-4.1
						c-14.907-2.799-24.499-6.447-24.286-9.883c0.204-3.289,9.348-5.662,23.41-6.68c0.201-0.714,0.424-1.419,0.684-2.111
						c-22.564,0.791-37.967,3.997-38.262,8.752c-0.31,5.002,16.182,10.367,40.422,13.955c9.794,1.449,20.851,2.609,32.578,3.336
						c11.728,0.727,22.843,0.942,32.741,0.713c24.497-0.566,41.526-3.853,41.836-8.855
						C235.055,262.174,220.166,257.09,197.872,253.518z"/>
					<path style="opacity:0.12;fill:#F4F6EB;" d="M197.874,253.482c0.049,0.202,0.088,0.406,0.131,0.61
						c19.195,3.491,31.642,8.116,31.372,12.467c-0.31,5.002-17.339,8.289-41.836,8.855c-9.135,0.211-19.314,0.039-30.047-0.56
						c0.896,0.061,1.788,0.124,2.692,0.18c11.728,0.727,22.843,0.942,32.741,0.713c24.497-0.566,41.526-3.853,41.836-8.855
						C235.057,262.138,220.168,257.054,197.874,253.482z"/>
					<path style="opacity:0.12;fill:#F4F6EB;" d="M196.837,274.996c-9.898,0.229-21.013,0.014-32.741-0.713
						c-11.728-0.727-22.784-1.887-32.578-3.336c-24.239-3.587-40.732-8.953-40.422-13.954c0.146-2.359,4.015-4.336,10.628-5.827
						c-8.989,1.549-14.381,3.806-14.554,6.599c-0.31,5.002,16.182,10.367,40.422,13.954c9.794,1.449,20.851,2.609,32.578,3.336
						c11.728,0.727,22.843,0.942,32.741,0.713c12.941-0.299,23.794-1.358,31.203-3.027
						C217.007,273.965,207.651,274.746,196.837,274.996z"/>
				</g>
			</g>
		</g>
		<g>
			<g>
				<polygon style="fill:#E54D25;" points="132.228,480.625 87.312,460.413 45.02,470.961 23.364,418.447 23.826,418.256 
					45.317,470.371 87.359,459.886 87.438,459.922 132.433,480.17 				"/>
			</g>
			<g>
				<circle style="fill:#E54D25;" cx="45.438" cy="470.127" r="2.067"/>
			</g>
			<g>
				<circle style="fill:#E54D25;" cx="87.437" cy="460.412" r="2.067"/>
			</g>
			<g>
				<circle style="fill:#E54D25;" cx="132.33" cy="480.397" r="2.067"/>
			</g>
			<g>
				<circle style="fill:#E54D25;" cx="23.595" cy="418.352" r="2.067"/>
			</g>
		</g>
		<g>
			<path style="fill:#152F4C;" d="M456.336,189.48c-0.321-6.472-2.784-12.378-6.692-17.031c-0.128-0.153-0.26-0.301-0.391-0.451
				c-0.18-0.206-0.361-0.41-0.547-0.611c-0.2-0.216-0.403-0.429-0.609-0.639c-0.107-0.109-0.215-0.216-0.324-0.323
				c-0.941-0.93-1.939-1.804-3.001-2.598c0.001,0.008,0.002,0.016,0.003,0.024c-4.79-3.568-10.729-5.681-17.161-5.681
				c-14.912,0-27.172,11.35-28.615,25.883c0,0,0,0,0,0c-0.002,0.017-0.002,0.034-0.004,0.051c-0.044,0.456-0.08,0.915-0.103,1.376
				c-0.024,0.48-0.037,0.962-0.037,1.448c0,1.632,0.143,3.23,0.404,4.788c-0.014-0.01-0.029-0.019-0.043-0.029
				c0.058,0.346,0.149,0.68,0.22,1.021c0.004,0.018,0.008,0.035,0.011,0.053c0.172,0.826,0.378,1.638,0.62,2.437
				c0.056,0.186,0.113,0.371,0.172,0.555c0.182,0.559,0.378,1.11,0.592,1.653c0.131,0.335,0.266,0.669,0.41,0.998
				c0.13,0.297,0.26,0.593,0.4,0.884c0.255,0.534,0.527,1.057,0.813,1.572c0.114,0.204,0.23,0.406,0.349,0.607
				c0.337,0.574,0.691,1.137,1.066,1.685c0.067,0.097,0.137,0.192,0.205,0.288c5.203,7.404,13.803,12.247,23.539,12.247
				c15.883,0,28.758-12.876,28.758-28.758C456.372,190.442,456.36,189.959,456.336,189.48z"/>
			<g>
				<circle style="fill:#FBCE73;" cx="426.476" cy="189.225" r="28.758"/>
				<path style="opacity:0.18;fill:#FFFFFF;" d="M443.634,166.124c0.264,1.566,0.409,3.173,0.409,4.815
					c0,15.883-12.876,28.758-28.758,28.758c-6.452,0-12.407-2.125-17.205-5.712c2.292,13.589,14.108,23.943,28.349,23.943
					c15.883,0,28.758-12.876,28.758-28.758C455.187,179.739,450.648,171.368,443.634,166.124z"/>
				<path style="opacity:0.74;fill:#EAAF47;" d="M426.476,212.232c-14.912,0-27.172-11.35-28.615-25.883
					c-0.094,0.946-0.144,1.905-0.144,2.876c0,15.883,12.876,28.758,28.758,28.758s28.758-12.876,28.758-28.758
					c0-0.971-0.05-1.93-0.144-2.876C453.648,200.882,441.388,212.232,426.476,212.232z"/>
				
					<ellipse transform="matrix(0.866 -0.5 0.5 0.866 -30.1676 231.7507)" style="opacity:0.18;fill:#FFFFFF;" cx="417.369" cy="172.169" rx="10.803" ry="5.552"/>
				<g>
					
						<ellipse transform="matrix(0.1497 -0.9887 0.9887 0.1497 182.5703 603.4912)" style="fill:#EAAF47;" cx="442.165" cy="195.596" rx="5.811" ry="6.36"/>
					<path style="opacity:0.59;fill:#F4F6EB;" d="M442.453,190.965c3.473,0.526,5.898,3.525,5.418,6.698
						c-0.058,0.384-0.158,0.753-0.292,1.104c0.445-0.654,0.753-1.402,0.877-2.221c0.481-3.173-1.945-6.172-5.418-6.698
						c-3.052-0.462-5.896,1.14-6.866,3.689C437.45,191.658,439.876,190.575,442.453,190.965z"/>
				</g>
				<g>
					
						<ellipse transform="matrix(0.9695 -0.2452 0.2452 0.9695 -32.8106 105.4954)" style="fill:#EAAF47;" cx="407.3" cy="184.526" rx="3.987" ry="3.644"/>
					<path style="opacity:0.59;fill:#F4F6EB;" d="M406.342,181.78c2.135-0.54,4.266,0.604,4.759,2.555
						c0.06,0.236,0.092,0.474,0.1,0.709c0.098-0.486,0.094-0.994-0.033-1.497c-0.493-1.951-2.624-3.095-4.759-2.555
						c-1.876,0.475-3.13,2.092-3.072,3.801C403.618,183.396,404.758,182.18,406.342,181.78z"/>
				</g>
				<g>
					
						<ellipse transform="matrix(0.9246 -0.3808 0.3808 0.9246 -36.5674 177.3381)" style="fill:#EAAF47;" cx="429.821" cy="181.069" rx="3.945" ry="3.605"/>
					<path style="opacity:0.59;fill:#F4F6EB;" d="M428.495,178.515c2.014-0.83,4.262-0.01,5.02,1.831
						c0.092,0.223,0.156,0.451,0.198,0.68c0.028-0.49-0.048-0.986-0.243-1.461c-0.758-1.841-3.006-2.66-5.02-1.831
						c-1.77,0.729-2.77,2.49-2.472,4.155C426.056,180.481,427.001,179.13,428.495,178.515z"/>
				</g>
				<g>
					
						<ellipse transform="matrix(0.9246 -0.3808 0.3808 0.9246 -43.629 171.9846)" style="fill:#EAAF47;" cx="412.763" cy="196.236" rx="2.502" ry="2.287"/>
					<path style="opacity:0.59;fill:#F4F6EB;" d="M411.922,194.616c1.278-0.526,2.703-0.006,3.184,1.161
						c0.058,0.141,0.099,0.286,0.125,0.431c0.017-0.311-0.03-0.626-0.154-0.927c-0.481-1.168-1.907-1.688-3.184-1.161
						c-1.123,0.463-1.757,1.579-1.568,2.636C410.375,195.863,410.974,195.006,411.922,194.616z"/>
				</g>
				<g>
					
						<ellipse transform="matrix(0.9246 -0.3808 0.3808 0.9246 -47.5792 171.1964)" style="fill:#EAAF47;" cx="408.796" cy="205.823" rx="3.153" ry="2.881"/>
					<path style="opacity:0.59;fill:#F4F6EB;" d="M407.736,203.781c1.61-0.663,3.407-0.008,4.013,1.463
						c0.073,0.178,0.125,0.36,0.158,0.544c0.022-0.391-0.038-0.788-0.195-1.168c-0.606-1.471-2.402-2.126-4.013-1.463
						c-1.415,0.583-2.214,1.99-1.976,3.321C405.787,205.353,406.542,204.273,407.736,203.781z"/>
				</g>
				<g>
					
						<ellipse transform="matrix(0.9246 -0.3808 0.3808 0.9246 -35.7264 183.3913)" style="fill:#EAAF47;" cx="445.537" cy="181.97" rx="2.502" ry="2.287"/>
					<path style="opacity:0.59;fill:#F4F6EB;" d="M444.696,180.35c1.278-0.526,2.704-0.006,3.184,1.161
						c0.058,0.141,0.099,0.286,0.125,0.431c0.017-0.311-0.03-0.626-0.154-0.927c-0.481-1.168-1.907-1.688-3.184-1.161
						c-1.123,0.463-1.757,1.579-1.568,2.636C443.149,181.597,443.748,180.741,444.696,180.35z"/>
				</g>
				<g>
					
						<ellipse transform="matrix(0.9246 -0.3808 0.3808 0.9246 -45.439 180.9665)" style="fill:#EAAF47;" cx="434.554" cy="205.3" rx="0.88" ry="0.804"/>
					<path style="opacity:0.59;fill:#F4F6EB;" d="M434.258,204.73c0.449-0.185,0.951-0.002,1.12,0.408
						c0.021,0.05,0.035,0.101,0.044,0.152c0.006-0.109-0.011-0.22-0.054-0.326c-0.169-0.411-0.671-0.593-1.12-0.408
						c-0.395,0.163-0.618,0.555-0.552,0.927C433.714,205.169,433.924,204.868,434.258,204.73z"/>
				</g>
				<g>
					
						<ellipse transform="matrix(0.9246 -0.3808 0.3808 0.9246 -33.5022 180.8582)" style="fill:#EAAF47;" cx="440.248" cy="175.084" rx="0.88" ry="0.804"/>
					<path style="opacity:0.59;fill:#F4F6EB;" d="M439.953,174.514c0.449-0.185,0.951-0.002,1.12,0.408
						c0.02,0.05,0.035,0.101,0.044,0.152c0.006-0.109-0.011-0.22-0.054-0.326c-0.169-0.411-0.671-0.594-1.12-0.408
						c-0.395,0.163-0.618,0.555-0.552,0.927C439.408,174.953,439.619,174.651,439.953,174.514z"/>
				</g>
				<g>
					
						<ellipse transform="matrix(0.9246 -0.3808 0.3808 0.9246 -37.3766 185.4421)" style="fill:#EAAF47;" cx="449.894" cy="187.166" rx="0.88" ry="0.804"/>
					<path style="opacity:0.59;fill:#F4F6EB;" d="M449.598,186.596c0.449-0.185,0.951-0.002,1.12,0.408
						c0.02,0.05,0.035,0.101,0.044,0.152c0.006-0.109-0.011-0.22-0.054-0.326c-0.169-0.411-0.671-0.594-1.12-0.408
						c-0.395,0.163-0.618,0.555-0.552,0.927C449.054,187.035,449.265,186.733,449.598,186.596z"/>
				</g>
				<g>
					
						<ellipse transform="matrix(0.9246 -0.3808 0.3808 0.9246 -47.2128 176.7124)" style="fill:#EAAF47;" cx="422.917" cy="207.655" rx="1.167" ry="1.066"/>
					<path style="opacity:0.59;fill:#F4F6EB;" d="M422.525,206.9c0.596-0.245,1.261-0.003,1.485,0.541
						c0.027,0.066,0.046,0.133,0.058,0.201c0.008-0.145-0.014-0.292-0.072-0.432c-0.224-0.544-0.889-0.787-1.485-0.541
						c-0.524,0.216-0.819,0.736-0.731,1.229C421.804,207.481,422.083,207.082,422.525,206.9z"/>
				</g>
				<g>
					
						<ellipse transform="matrix(0.9246 -0.3808 0.3808 0.9246 -30.4968 179.9195)" style="fill:#EAAF47;" cx="439.379" cy="167.02" rx="1.167" ry="1.066"/>
					<path style="opacity:0.59;fill:#F4F6EB;" d="M438.987,166.265c0.596-0.245,1.261-0.003,1.485,0.541
						c0.027,0.066,0.046,0.133,0.058,0.201c0.008-0.145-0.014-0.292-0.072-0.432c-0.224-0.544-0.889-0.787-1.485-0.541
						c-0.524,0.216-0.819,0.736-0.731,1.229C438.266,166.846,438.545,166.447,438.987,166.265z"/>
				</g>
				<g>
					
						<ellipse transform="matrix(0.9246 -0.3808 0.3808 0.9246 -44.3397 168.3938)" style="fill:#EAAF47;" cx="403.334" cy="196.236" rx="1.167" ry="1.066"/>
					<path style="opacity:0.59;fill:#F4F6EB;" d="M402.942,195.481c0.596-0.245,1.261-0.003,1.485,0.541
						c0.027,0.066,0.046,0.133,0.058,0.201c0.008-0.145-0.014-0.292-0.072-0.432c-0.224-0.544-0.889-0.787-1.485-0.541
						c-0.524,0.216-0.819,0.736-0.731,1.229C402.221,196.062,402.5,195.663,402.942,195.481z"/>
				</g>
				<g>
					
						<ellipse transform="matrix(0.9246 -0.3808 0.3808 0.9246 -44.6047 178.6743)" style="fill:#EAAF47;" cx="429.179" cy="202.046" rx="0.579" ry="0.529"/>
					<path style="opacity:0.59;fill:#F4F6EB;" d="M428.984,201.671c0.296-0.122,0.625-0.001,0.737,0.269
						c0.013,0.033,0.023,0.066,0.029,0.1c0.004-0.072-0.007-0.145-0.036-0.214c-0.111-0.27-0.441-0.39-0.737-0.269
						c-0.26,0.107-0.407,0.365-0.363,0.61C428.626,201.96,428.765,201.762,428.984,201.671z"/>
				</g>
				<g>
					
						<ellipse transform="matrix(0.9246 -0.3808 0.3808 0.9246 -36.8773 180.6098)" style="fill:#EAAF47;" cx="437.933" cy="183.488" rx="0.579" ry="0.529"/>
					<path style="opacity:0.59;fill:#F4F6EB;" d="M437.739,183.113c0.296-0.122,0.625-0.001,0.737,0.269
						c0.013,0.033,0.023,0.066,0.029,0.1c0.004-0.072-0.007-0.145-0.036-0.214c-0.111-0.27-0.441-0.39-0.737-0.269
						c-0.26,0.107-0.407,0.365-0.363,0.61C437.381,183.402,437.519,183.203,437.739,183.113z"/>
				</g>
				<g>
					
						<ellipse transform="matrix(0.9246 -0.3808 0.3808 0.9246 -42.3942 169.8049)" style="fill:#EAAF47;" cx="407.872" cy="192.026" rx="0.579" ry="0.529"/>
					<path style="opacity:0.59;fill:#F4F6EB;" d="M407.678,191.651c0.296-0.122,0.625-0.001,0.737,0.269
						c0.013,0.033,0.023,0.066,0.029,0.1c0.004-0.072-0.007-0.145-0.036-0.214c-0.111-0.27-0.441-0.39-0.737-0.269
						c-0.26,0.107-0.407,0.365-0.363,0.61C407.32,191.94,407.459,191.741,407.678,191.651z"/>
				</g>
				<g>
					
						<ellipse transform="matrix(0.9246 -0.3808 0.3808 0.9246 -46.303 182.7013)" style="fill:#EAAF47;" cx="438.505" cy="208.351" rx="0.579" ry="0.529"/>
					<path style="opacity:0.59;fill:#F4F6EB;" d="M438.311,207.976c0.296-0.122,0.625-0.001,0.737,0.269
						c0.013,0.033,0.023,0.066,0.029,0.1c0.004-0.072-0.007-0.145-0.036-0.214c-0.111-0.27-0.441-0.39-0.737-0.269
						c-0.26,0.107-0.407,0.365-0.363,0.61C437.953,208.265,438.091,208.066,438.311,207.976z"/>
				</g>
				<g>
					
						<ellipse transform="matrix(0.9246 -0.3808 0.3808 0.9246 -33.7699 184.1581)" style="fill:#EAAF47;" cx="448.453" cy="177.41" rx="0.579" ry="0.529"/>
					<path style="opacity:0.59;fill:#F4F6EB;" d="M448.258,177.035c0.296-0.122,0.625-0.001,0.737,0.269
						c0.013,0.033,0.023,0.066,0.029,0.1c0.004-0.072-0.007-0.145-0.036-0.214c-0.111-0.27-0.441-0.39-0.737-0.269
						c-0.26,0.107-0.407,0.365-0.363,0.61C447.9,177.324,448.039,177.126,448.258,177.035z"/>
				</g>
				<g>
					
						<ellipse transform="matrix(0.9246 -0.3808 0.3808 0.9246 -47.2714 181.9694)" style="fill:#EAAF47;" cx="436.172" cy="210.432" rx="0.579" ry="0.529"/>
					<path style="opacity:0.59;fill:#F4F6EB;" d="M435.977,210.057c0.296-0.122,0.625-0.001,0.737,0.269
						c0.013,0.033,0.023,0.066,0.029,0.1c0.004-0.072-0.007-0.145-0.036-0.214c-0.111-0.27-0.441-0.39-0.737-0.269
						c-0.26,0.107-0.407,0.365-0.363,0.61C435.619,210.345,435.758,210.147,435.977,210.057z"/>
				</g>
				<g>
					
						<ellipse transform="matrix(0.9246 -0.3808 0.3808 0.9246 -47.478 179.6107)" style="fill:#EAAF47;" cx="430.108" cy="209.775" rx="0.579" ry="0.529"/>
					<path style="opacity:0.59;fill:#F4F6EB;" d="M429.914,209.4c0.296-0.122,0.625-0.001,0.737,0.269
						c0.013,0.033,0.023,0.066,0.029,0.1c0.004-0.072-0.007-0.145-0.036-0.214c-0.111-0.27-0.441-0.39-0.737-0.269
						c-0.26,0.107-0.407,0.365-0.363,0.61C429.556,209.688,429.694,209.49,429.914,209.4z"/>
				</g>
				<g>
					
						<ellipse transform="matrix(0.9246 -0.3808 0.3808 0.9246 -47.9781 172.8452)" style="fill:#EAAF47;" cx="412.763" cy="207.656" rx="0.372" ry="0.34"/>
					<path style="opacity:0.59;fill:#F4F6EB;" d="M412.638,207.415c0.19-0.078,0.402-0.001,0.474,0.173
						c0.009,0.021,0.015,0.043,0.019,0.064c0.003-0.046-0.004-0.093-0.023-0.138c-0.072-0.174-0.284-0.251-0.474-0.173
						c-0.167,0.069-0.261,0.235-0.233,0.392C412.408,207.6,412.497,207.473,412.638,207.415z"/>
				</g>
				<g>
					
						<ellipse transform="matrix(0.9246 -0.3808 0.3808 0.9246 -46.4106 178.4124)" style="fill:#EAAF47;" cx="427.614" cy="206.478" rx="0.372" ry="0.34"/>
					<path style="opacity:0.59;fill:#F4F6EB;" d="M427.489,206.237c0.19-0.078,0.402-0.001,0.473,0.173
						c0.009,0.021,0.015,0.043,0.019,0.064c0.003-0.046-0.005-0.093-0.023-0.138c-0.072-0.174-0.284-0.251-0.474-0.173
						c-0.167,0.069-0.261,0.235-0.233,0.392C427.259,206.423,427.348,206.296,427.489,206.237z"/>
				</g>
				<g>
					
						<ellipse transform="matrix(0.9246 -0.3808 0.3808 0.9246 -35.4705 185.7246)" style="fill:#EAAF47;" cx="451.561" cy="182.49" rx="0.372" ry="0.34"/>
					<path style="opacity:0.59;fill:#F4F6EB;" d="M451.436,182.25c0.19-0.078,0.402-0.001,0.474,0.173
						c0.009,0.021,0.015,0.043,0.019,0.064c0.003-0.046-0.004-0.093-0.023-0.138c-0.072-0.174-0.284-0.251-0.474-0.173
						c-0.167,0.069-0.261,0.235-0.233,0.392C451.206,182.435,451.295,182.308,451.436,182.25z"/>
				</g>
				<g>
					
						<ellipse transform="matrix(0.9246 -0.3808 0.3808 0.9246 -41.1939 171.3573)" style="fill:#EAAF47;" cx="412.395" cy="189.769" rx="0.372" ry="0.34"/>
					<path style="opacity:0.59;fill:#F4F6EB;" d="M412.27,189.528c0.19-0.078,0.402-0.001,0.473,0.173
						c0.009,0.021,0.015,0.043,0.019,0.064c0.003-0.046-0.005-0.093-0.023-0.138c-0.072-0.174-0.284-0.251-0.474-0.173
						c-0.167,0.069-0.261,0.235-0.233,0.392C412.04,189.713,412.129,189.586,412.27,189.528z"/>
				</g>
				<g>
					
						<ellipse transform="matrix(0.9246 -0.3808 0.3808 0.9246 -44.222 184.8153)" style="fill:#EAAF47;" cx="444.888" cy="204.149" rx="0.372" ry="0.34"/>
					<path style="opacity:0.59;fill:#F4F6EB;" d="M444.762,203.909c0.19-0.078,0.402-0.001,0.474,0.173
						c0.009,0.021,0.015,0.043,0.019,0.064c0.003-0.046-0.004-0.093-0.023-0.138c-0.072-0.174-0.284-0.251-0.474-0.173
						c-0.167,0.069-0.261,0.235-0.233,0.392C444.532,204.094,444.622,203.967,444.762,203.909z"/>
				</g>
				<g>
					
						<ellipse transform="matrix(0.9246 -0.3808 0.3808 0.9246 -46.6929 172.9972)" style="fill:#EAAF47;" cx="413.789" cy="204.484" rx="0.579" ry="0.529"/>
					<path style="opacity:0.59;fill:#F4F6EB;" d="M413.595,204.109c0.296-0.122,0.625-0.001,0.737,0.269
						c0.013,0.033,0.023,0.066,0.029,0.1c0.004-0.072-0.007-0.145-0.036-0.214c-0.111-0.27-0.441-0.39-0.737-0.269
						c-0.26,0.107-0.407,0.365-0.363,0.61C413.237,204.398,413.376,204.2,413.595,204.109z"/>
				</g>
				<g>
					
						<ellipse transform="matrix(0.9246 -0.3808 0.3808 0.9246 -48.3944 173.9058)" style="fill:#EAAF47;" cx="415.235" cy="209.238" rx="0.579" ry="0.529"/>
					<path style="opacity:0.59;fill:#F4F6EB;" d="M415.04,208.863c0.296-0.122,0.625-0.001,0.737,0.269
						c0.013,0.033,0.023,0.066,0.029,0.1c0.004-0.072-0.007-0.145-0.036-0.214c-0.111-0.27-0.441-0.39-0.737-0.269
						c-0.26,0.107-0.407,0.365-0.363,0.61C414.682,209.151,414.821,208.953,415.04,208.863z"/>
				</g>
				<g>
					
						<ellipse transform="matrix(0.9246 -0.3808 0.3808 0.9246 -33.7511 176.8945)" style="fill:#EAAF47;" cx="430.108" cy="173.731" rx="0.579" ry="0.529"/>
					<path style="opacity:0.59;fill:#F4F6EB;" d="M429.914,173.356c0.296-0.122,0.625-0.001,0.737,0.269
						c0.013,0.033,0.023,0.066,0.029,0.1c0.004-0.072-0.007-0.145-0.036-0.214c-0.111-0.27-0.441-0.39-0.737-0.269
						c-0.26,0.107-0.407,0.365-0.363,0.61C429.556,173.644,429.695,173.446,429.914,173.356z"/>
				</g>
				<g>
					
						<ellipse transform="matrix(0.9246 -0.3808 0.3808 0.9246 -40.257 173.0244)" style="fill:#EAAF47;" cx="417.076" cy="188.235" rx="0.579" ry="0.529"/>
					<path style="opacity:0.59;fill:#F4F6EB;" d="M416.882,187.86c0.296-0.122,0.625-0.001,0.737,0.269
						c0.013,0.033,0.023,0.066,0.029,0.1c0.004-0.072-0.007-0.145-0.036-0.214c-0.111-0.27-0.441-0.39-0.737-0.269
						c-0.26,0.107-0.407,0.365-0.363,0.61C416.524,188.149,416.662,187.951,416.882,187.86z"/>
				</g>
				<g>
					
						<ellipse transform="matrix(0.9246 -0.3808 0.3808 0.9246 -37.6764 183.2938)" style="fill:#EAAF47;" cx="444.316" cy="186.849" rx="0.579" ry="0.529"/>
					<path style="opacity:0.59;fill:#F4F6EB;" d="M444.121,186.474c0.296-0.122,0.625-0.001,0.737,0.269
						c0.013,0.033,0.023,0.066,0.029,0.1c0.004-0.072-0.007-0.145-0.036-0.214c-0.111-0.27-0.441-0.39-0.737-0.269
						c-0.26,0.107-0.407,0.365-0.363,0.61C443.763,186.763,443.902,186.565,444.121,186.474z"/>
				</g>
			</g>
		</g>
		<g>
			<path style="fill:#152F4C;" d="M303.556,406.616c0.092-0.106,0.185-0.211,0.275-0.319c0.299-0.354,0.59-0.714,0.876-1.078
				c0.09-0.114,0.179-0.227,0.268-0.342c0.287-0.372,0.567-0.748,0.842-1.129c0.075-0.104,0.149-0.209,0.223-0.314
				c0.283-0.401,0.561-0.806,0.83-1.218c0.046-0.07,0.089-0.141,0.134-0.21c1.542-2.389,2.845-4.945,3.878-7.638
				c0.001,0.001,0.002,0.002,0.003,0.003c0.014-0.038,0.026-0.076,0.041-0.114c0.168-0.442,0.327-0.889,0.48-1.339
				c0.059-0.172,0.118-0.344,0.175-0.518c0.126-0.386,0.247-0.775,0.362-1.166c0.087-0.293,0.169-0.587,0.25-0.883
				c0.075-0.277,0.15-0.555,0.219-0.835c0.121-0.483,0.232-0.97,0.336-1.46c0.022-0.107,0.047-0.212,0.068-0.319
				c0.54-2.64,0.838-5.367,0.838-8.168c0-0.736-0.026-1.465-0.066-2.19c-0.008-0.172-0.025-0.341-0.036-0.513
				c-0.026-0.393-0.051-0.786-0.089-1.176c-1.845-20.614-18.684-36.888-39.499-37.765c-0.205-0.009-0.413-0.009-0.619-0.016
				c-0.383-0.011-0.764-0.029-1.15-0.029c-0.024,0-0.048,0.002-0.072,0.002c-0.027,0-0.054-0.002-0.082-0.002
				c-0.264,0-0.524,0.019-0.787,0.024c-0.441,0.01-0.883,0.016-1.321,0.04c-0.536,0.028-1.067,0.074-1.597,0.122
				c-0.176,0.016-0.354,0.029-0.529,0.048c-0.611,0.063-1.217,0.142-1.82,0.232c-0.063,0.01-0.126,0.019-0.189,0.029
				c-1.172,0.18-2.334,0.391-3.472,0.666c0.002,0.011,0.005,0.023,0.007,0.034c-6.726,1.648-12.809,4.937-17.799,9.428
				c-0.002-0.084-0.009-0.167-0.01-0.252c-8.453,7.611-13.773,18.652-13.773,30.943c0,0.025,0.002,0.049,0.002,0.074
				c0,0.019-0.002,0.038-0.002,0.057c0.001,0.002,0.002,0.003,0.003,0.005c0,0.042-0.003,0.083-0.003,0.125
				c0,7.893,2.193,15.271,6,21.557c1.385,2.286,2.983,4.427,4.767,6.396c0.446,0.492,0.904,0.974,1.372,1.444
				c1.406,1.411,2.913,2.72,4.509,3.917c1.064,0.798,2.167,1.546,3.306,2.24c3.089,1.883,6.448,3.36,9.997,4.386
				c0.056,0.016,0.112,0.032,0.168,0.048c0.475,0.135,0.952,0.265,1.434,0.384c0.074,0.018,0.15,0.034,0.224,0.052
				c0.764,0.183,1.536,0.344,2.316,0.484c0.261,0.047,0.521,0.098,0.784,0.14c0.291,0.047,0.585,0.085,0.878,0.125
				c0.352,0.049,0.704,0.095,1.059,0.135c0.264,0.029,0.529,0.056,0.794,0.081c0.414,0.038,0.83,0.069,1.247,0.095
				c0.218,0.014,0.436,0.03,0.655,0.04c0.641,0.03,1.284,0.049,1.933,0.049c0.001,0,0.001,0,0.002,0h0l0,0c0,0,0,0,0,0s0,0,0,0
				c0,0,0.001,0,0.001,0c0.676,0,1.348-0.019,2.016-0.051c0.14-0.007,0.279-0.018,0.419-0.026c0.019-0.001,0.038-0.003,0.057-0.004
				c0.062-0.004,0.123-0.01,0.184-0.014c0.447-0.029,0.892-0.059,1.335-0.102c0.259-0.025,0.516-0.057,0.774-0.087
				c0.4-0.046,0.799-0.095,1.196-0.152c0.271-0.039,0.54-0.083,0.81-0.128c0.38-0.063,0.758-0.13,1.134-0.203
				c0.272-0.053,0.544-0.108,0.814-0.166c0.371-0.08,0.739-0.166,1.105-0.256c0.268-0.065,0.535-0.13,0.801-0.201
				c0.37-0.098,0.736-0.206,1.102-0.314c0.254-0.075,0.509-0.147,0.761-0.227c0.395-0.125,0.784-0.262,1.173-0.398
				c0.217-0.076,0.436-0.146,0.651-0.226c0.582-0.215,1.158-0.443,1.727-0.683c0.232-0.098,0.458-0.206,0.687-0.308
				c0.348-0.154,0.696-0.307,1.039-0.471c0.276-0.132,0.547-0.272,0.82-0.41c0.288-0.145,0.576-0.29,0.859-0.441
				c0.287-0.153,0.57-0.314,0.853-0.474c0.261-0.147,0.521-0.296,0.778-0.449c0.29-0.173,0.577-0.349,0.863-0.529
				c0.24-0.151,0.478-0.304,0.715-0.46c0.292-0.192,0.582-0.386,0.869-0.585c0.216-0.15,0.429-0.304,0.642-0.458
				c0.298-0.216,0.596-0.432,0.889-0.655c0.179-0.136,0.353-0.278,0.529-0.417c0.317-0.251,0.635-0.5,0.945-0.76
				c0.077-0.064,0.15-0.132,0.227-0.197c1.209-1.028,2.357-2.124,3.441-3.283c0.068-0.073,0.139-0.144,0.207-0.218
				C302.938,407.329,303.248,406.974,303.556,406.616z"/>
			<g>
				<ellipse style="fill:#0E75BA;" cx="271.383" cy="376.282" rx="41.445" ry="41.573"/>
				<path style="fill:#4FB7A5;" d="M238.263,381.256c2.478,0.242,4.972-0.106,7.438-0.453c0.647-0.091,1.32-0.192,1.855-0.568
					c0.534-0.375,0.874-1.115,0.585-1.7c-0.299-0.606-1.07-0.767-1.737-0.876c-3.916-0.637-7.733-1.876-11.277-3.659
					c-1.565-0.787-3.25-1.683-4.936-2.172c-0.156,1.422-0.244,2.863-0.252,4.324c0.497,0.765,1.008,1.522,1.626,2.169
					C233.285,380.122,235.784,381.015,238.263,381.256z"/>
				<path style="fill:#4FB7A5;" d="M241.663,369.807c4.917,0.955,9.859,4.347,14.51,2.488c3.325-1.329,5.162-5.077,5.323-8.654
					c0.098-2.165-0.266-4.495,0.815-6.373c0.922-1.602,2.68-2.484,4.215-3.513c3.465-2.323,6.139-5.805,7.489-9.753
					c0.826-2.415,1.157-5.081,0.404-7.519c-0.152-0.492-0.366-0.965-0.612-1.422c-0.806-0.047-1.605-0.122-2.424-0.122
					c-20.076,0-36.813,14.272-40.634,33.222c0.844,0.391,1.747,0.68,2.645,0.846C236.12,369.512,238.942,369.279,241.663,369.807z"
					/>
				<path style="fill:#4FB7A5;" d="M310.276,362.15c-6.21-0.123-12.452,3.078-16.992,7.511c-0.526,0.514-1.05,1.065-1.305,1.754
					c-0.819,2.212,1.397,4.311,3.421,5.524c2.632,1.577,5.443,2.964,7.584,5.163c2.277,2.338,3.632,5.43,5.792,7.876
					c0.387,0.438,0.831,0.84,1.297,1.22c1.762-4.602,2.769-9.579,2.769-14.801C312.842,371.383,311.906,366.599,310.276,362.15z"/>
				<path style="fill:#4FB7A5;" d="M287.953,399.591c0.743-1.381,2.047-2.428,2.631-3.883c1.249-3.114-1.243-6.409-3.735-8.656
					c-5.284-4.765-11.703-8.672-18.787-9.337c-7.085-0.665-14.828,2.551-17.973,8.933c-2.222,4.509-1.927,9.778-2.302,14.79
					c-0.213,2.846-0.632,5.69-0.654,8.535c6.824,4.938,15.185,7.883,24.252,7.883c3.296,0,6.487-0.425,9.561-1.152
					c2.977-3.041,5.261-6.53,5.841-10.707C287.086,403.831,286.918,401.516,287.953,399.591z"/>
				<path style="opacity:0.2;fill:#F4F6EB;" d="M271.229,334.708c-3.347,0-6.598,0.409-9.716,1.16
					c3.702,19.153,20.502,33.618,40.678,33.618c3.347,0,6.598-0.409,9.716-1.16C308.206,349.173,291.406,334.708,271.229,334.708z"
					/>
				<path style="opacity:0.11;fill:#F4F6EB;" d="M285.14,385.994c-22.669,0-41.076-18.26-41.428-40.915
					c-8.453,7.611-13.773,18.652-13.773,30.943c0,22.96,18.556,41.573,41.445,41.573c22.889,0,41.445-18.613,41.445-41.573
					c0-0.221-0.013-0.438-0.017-0.658C305.474,381.97,295.777,385.994,285.14,385.994z"/>
				<path style="opacity:0.49;fill:#0E75BA;" d="M275.002,407.106c-22.889,0-41.445-18.613-41.445-41.573
					c0-2.67,0.261-5.279,0.741-7.809c-2.784,5.587-4.36,11.886-4.36,18.558c0,22.96,18.556,41.573,41.445,41.573
					c20.227,0,37.06-14.539,40.704-33.764C305.29,397.733,291.241,407.106,275.002,407.106z"/>
			</g>
		</g>
		<g>
			<g>
				<circle style="fill:#F47856;" cx="319.923" cy="258.725" r="21.793"/>
				<path style="fill:#EE5829;" d="M336.311,244.343c-9.598-4.348-18.108-5.855-23.343-6.368c-1.875,0.626-3.663,1.509-5.313,2.623
					c12.291-0.303,22.896,2.575,29.741,5.105C337.053,245.237,336.693,244.782,336.311,244.343z"/>
				<path style="fill:#EE5829;" d="M341.102,253.752c-0.291-1.258-0.696-2.486-1.203-3.673c-17.568-7.678-28.881-8.347-34.15-8.039
					c-0.46,0.391-0.903,0.805-1.333,1.237C319.317,243.296,334.463,250.268,341.102,253.752z"/>
				<path style="fill:#EE5829;" d="M341.628,257.518c-13.811-6.502-31.227-11.679-37.87-13.549c-0.397,0.436-0.78,0.888-1.144,1.36
					l39.028,14.181C341.667,258.844,341.663,258.18,341.628,257.518z"/>
				<path style="fill:#EE5829;" d="M341.45,262.098l-39.944-15.079c-0.231,0.366-0.45,0.744-0.662,1.128l40.411,15.005
					C341.328,262.802,341.394,262.451,341.45,262.098z"/>
				<path style="fill:#EE5829;" d="M298.926,252.848c-0.154,0.556-0.284,1.115-0.393,1.675l41.281,13.041
					c0.522-1.163,0.935-2.349,1.24-3.546C322.802,258.876,306.507,254.736,298.926,252.848z"/>
				<path style="fill:#EE5829;" d="M298.074,258.81l38.791,13.473c0.35-0.437,0.684-0.89,1.002-1.359l-39.67-14.665
					C298.104,257.111,298.067,257.962,298.074,258.81z"/>
				<path style="fill:#EE5829;" d="M298.555,263.186l35.044,12.382c0.667-0.541,1.307-1.121,1.911-1.745l-37.173-11.81
					C298.4,262.406,298.472,262.797,298.555,263.186z"/>
				<path style="fill:#EE5829;" d="M301.436,270.284l28.094,7.893c0.73-0.361,1.44-0.762,2.128-1.203
					c-6.962-2.261-24.375-7.909-32.08-10.366C300.08,267.886,300.701,269.117,301.436,270.284z"/>
				<path style="opacity:0.24;fill:#F4F6EB;" d="M329.674,239.235c-6.699-3.327-14.284-2.887-20.353,0.509
					c5.006-1.397,10.524-1.02,15.545,1.473c10.78,5.354,15.177,18.434,9.823,29.213c-2.027,4.081-5.162,7.245-8.86,9.314
					c5.742-1.602,10.808-5.537,13.668-11.296C344.851,257.668,340.453,244.589,329.674,239.235z"/>
				<path style="opacity:0.4;fill:#CC3911;" d="M316.27,276.675c-10.78-5.354-15.177-18.434-9.823-29.213
					c2.423-4.877,6.429-8.442,11.085-10.394c-7.12,0.793-13.703,5.07-17.127,11.963c-5.354,10.78-0.957,23.859,9.823,29.213
					c5.903,2.932,12.492,2.934,18.128,0.571C324.341,279.262,320.156,278.605,316.27,276.675z"/>
			</g>
			<path style="opacity:0.09;fill:#F4F6EB;" d="M323.004,267.981c-10.78-5.354-15.177-18.434-9.823-29.213
				c0.146-0.294,0.3-0.58,0.457-0.864c-5.508,1.697-10.338,5.557-13.105,11.127c-5.354,10.78-0.957,23.859,9.823,29.213
				c10.486,5.209,23.146,1.187,28.756-8.958C333.959,270.873,328.214,270.569,323.004,267.981z"/>
		</g>
		<g>
			<g>
				<path style="fill:#F4F6EB;" d="M125.814,147.685c0.074-0.155,0.084-0.329,0.028-0.494c-0.102-0.287-0.362-0.445-0.507-0.516
					l-0.153,0.422c-0.017-0.008-0.029-0.006-0.044-0.013l0.197-0.409c-0.447-0.215-0.874-0.126-1.041,0.22l0.417,0.201
					c-0.004,0.009-0.023,0.004-0.029,0.017c0.209,0.169,0.214,0.407,0.617,0.51c0.072-0.049,0.054-0.1,0.073-0.152L125.814,147.685z
					"/>
				<path style="fill:#F4F6EB;" d="M152.315,192.604l-0.492-0.237c0.011-0.016,0.034-0.01,0.039-0.03
					c-0.222-0.115-0.134-0.339-0.438-0.426c-0.073,0.047-0.072,0.099-0.092,0.151l-0.505-0.243c-0.19,0.394,0.005,0.858,0.455,1.075
					l0.233-0.484l0,0l-0.233,0.484c0.155,0.075,0.318,0.106,0.472,0.089C152.001,192.963,152.211,192.82,152.315,192.604z"/>
				<path style="fill:#F4F6EB;" d="M181.979,101.845l-0.321-0.623c-0.24-0.045-0.427-0.128-0.592-0.198
					c-0.235-0.102-0.471-0.208-0.748-0.12l-0.155,0.754c0.062,0.052,0.106,0.127,0.165,0.225c0.141,0.233,0.335,0.551,0.867,0.72
					l0.531-0.23L181.979,101.845z"/>
				<path style="fill:#F4F6EB;" d="M244.709,123.333l0.049-0.39c-0.077-0.216-0.524-0.776-1.009-0.828
					c-0.265-0.033-0.511,0.088-0.652,0.322L243.18,123c-0.047-0.037-0.067-0.131-0.074-0.134l0.133,0.615
					C244.137,124.043,244.593,123.51,244.709,123.333z"/>
				<path style="fill:#F4F6EB;" d="M224.939,146.685l0.266-0.022c0.339-0.124,0.615-0.371,0.77-0.692
					c0.228-0.473,0.174-1.058-0.141-1.524l-0.496-0.223l-0.782,0.101l-0.425,0.349l-0.092,0.191
					c-0.438,0.908-0.037,1.417,0.24,1.643l0.238,0.105L224.939,146.685z"/>
				<path style="fill:#F4F6EB;" d="M213.727,124.94l0.682-0.198c0.056-0.16,0.163-0.452,0.011-0.736
					c-0.093-0.179-0.266-0.3-0.504-0.358l-0.522,0.286c-0.012,0.041-0.031,0.082-0.052,0.125c-0.077,0.17-0.307,0.695,0.156,0.991
					l0.295-0.079C213.763,124.963,213.741,124.949,213.727,124.94z"/>
				<path style="fill:#F4F6EB;" d="M209.999,98.252c0.001,0.007,0.002,0.063-0.01,0.175l0.046-0.775
					c-0.284-0.175-0.555-0.225-0.805-0.154c-0.166,0.053-0.397,0.182-0.56,0.518l-0.049,0.118l0.23,0.561
					c0.117,0.052,0.162,0.113,0.244,0.251l0.79-0.07C210.025,98.587,210.01,98.384,209.999,98.252z"/>
				<path style="fill:#F4F6EB;" d="M255.666,159.322l0.583-0.034c0.087-0.084,0.184-0.147,0.279-0.213
					c0.138-0.092,0.275-0.187,0.403-0.308l-0.062-0.684c-0.285-0.186-0.648-0.247-0.969-0.157c-0.253,0.069-0.447,0.22-0.546,0.425
					C255.296,158.471,255.142,158.904,255.666,159.322z"/>
				<path style="fill:#F4F6EB;" d="M245.338,143.563c0.193-0.401,0.049-0.856-0.346-1.078l-0.558,0.109
					c-0.021,0.024-0.057,0.048-0.103,0.084c-0.114,0.082-0.285,0.206-0.404,0.453c-0.035,0.072-0.064,0.15-0.091,0.249l0.155,0.452
					c0.24,0.188,0.515,0.255,0.777,0.194C245.017,143.972,245.224,143.8,245.338,143.563z"/>
				<path style="fill:#F4F6EB;" d="M131.721,179.59c0.188-0.034,0.505-0.093,0.719-0.416l-0.192-0.651
					c-0.407-0.177-1.261-0.054-1.494,0.43c-0.115,0.239-0.06,0.51,0.138,0.724l0.684-0.053
					C131.596,179.611,131.672,179.597,131.721,179.59z"/>
				<path style="fill:#F4F6EB;" d="M170.68,197.627l0.065,0.012c0.201,0.391,0.566,0.886,1.281,0.987
					c0.574,0.081,1.146-0.16,1.525-0.645l0.221-0.639l-0.001-0.548l-0.094-0.419l-0.055-0.178c-0.126-0.432-0.36-1.236-1.186-1.616
					c-0.502-0.229-1.078-0.219-1.626,0.027l-0.607,0.92l-0.013,0.6l-0.132,0.027C170.021,196.93,170.376,197.385,170.68,197.627z"/>
				<path style="fill:#F4F6EB;" d="M151.447,162.833l0.23-0.055c0.124-0.063,0.497-0.253,0.69-0.655
					c0.094-0.194,0.343-0.879-0.414-1.536l-0.427-0.119l-0.843,0.168c-0.106,0.055-0.43,0.222-0.621,0.619l-0.075,0.196l0.013,0.394
					l0.233,0.516l0.249,0.254l0.35,0.169l0.224,0.051L151.447,162.833z"/>
				<path style="fill:#F4F6EB;" d="M205.072,219.162l0.257-0.275c0.349-0.888,0.111-1.471-0.149-1.803l-0.254-0.176l-0.477-0.153
					l-0.317,0.001c-0.392,0.126-0.718,0.407-0.892,0.77c-0.174,0.36-0.183,0.769-0.03,1.121c0.165,0.381,0.502,0.671,0.945,0.807
					l0.376-0.03L205.072,219.162z"/>
				<path style="fill:#F4F6EB;" d="M214.855,198.394c0.138-0.058,0.346-0.159,0.522-0.383l0.107-0.406l-0.134-0.754
					c-0.041-0.096-0.136-0.321-0.361-0.514l-0.415-0.118l-0.815,0.15c-0.097,0.048-0.3,0.144-0.477,0.358l-0.115,0.41l0.139,0.779
					c0.043,0.098,0.144,0.328,0.389,0.517l0.404,0.103L214.855,198.394z"/>
				<path style="fill:#F4F6EB;" d="M148.298,174.9c0.099-0.048,0.306-0.146,0.483-0.363l0.106-0.419l-0.169-0.823
					c-0.07-0.139-0.283-0.555-0.862-0.714l-0.348,0.029l-0.519,0.233l-0.255,0.245l-0.251,0.52l-0.02,0.397l0.206,0.588l0.263,0.295
					l0.347,0.167l0.365,0.034L148.298,174.9z"/>
				<path style="fill:#F4F6EB;" d="M133.977,203.867c0.024,0,0.1,0.017,0.149,0.03c0.213,0.048,0.593,0.137,0.882-0.171
					l-0.152-0.706c-0.107-0.045-0.141-0.095-0.237-0.25l-0.737-0.015c-0.024,0.027-0.118,0.077-0.18,0.112
					c-0.199,0.111-0.422,0.236-0.533,0.466c-0.046,0.094-0.171,0.433,0.173,0.77l0.76-0.314
					C134.084,203.828,134.018,203.869,133.977,203.867z"/>
				<path style="fill:#F4F6EB;" d="M199.263,238.918c0.224-0.465,0.089-0.948-0.331-1.172l-0.659,0.172
					c-0.131,0.04-0.32,0.101-0.482,0.291l0.105,0.734c0.041,0.131,0.103,0.329,0.289,0.492l0.424,0.085
					C198.873,239.435,199.124,239.206,199.263,238.918z"/>
				<path style="fill:#F4F6EB;" d="M152.837,214.939c-0.405-0.215-0.88-0.074-1.106,0.326l0.104,0.561
					c0.024,0.021,0.05,0.051,0.089,0.103c0.112,0.156,0.279,0.385,0.697,0.491l0.453-0.152
					C153.447,215.782,153.315,215.188,152.837,214.939z"/>
				<path style="fill:#F4F6EB;" d="M170.49,209.766l0.298,0.429l0.378,0.252c0.744,0.37,1.324,0.302,1.724-0.204l0.098-0.434
					l-0.045-0.209l0.051-0.035c0.248-0.809-0.151-1.227-0.409-1.405l-0.196-0.082L171.978,208c-0.64-0.133-1.152,0.094-1.409,0.629
					c-0.104,0.216-0.157,0.48-0.169,0.824L170.49,209.766z"/>
				<path style="fill:#F4F6EB;" d="M160.796,206.247l0.147-0.433l-0.093-0.692l-0.251-0.379c-0.328-0.191-0.936-0.543-1.593-0.343
					c-0.359,0.111-0.655,0.371-0.831,0.736c-0.036,0.075-0.066,0.153-0.095,0.251l0.034,0.392l0.286,0.551l0.299,0.253
					C159.031,206.691,160.039,207.015,160.796,206.247z"/>
				<path style="fill:#F4F6EB;" d="M162.583,234.706c-0.45-0.545-0.908-1.135-1.172-1.779l-0.839,0.099
					c-0.096,0.577,0.167,1.35,0.64,1.878c0.32,0.361,0.685,0.542,1.056,0.52L162.583,234.706z"/>
				<path style="fill:#F4F6EB;" d="M181.911,226.962l-0.057-0.631c-0.025-0.02-0.051-0.055-0.086-0.103
					c-0.11-0.153-0.272-0.383-0.686-0.495l-0.484,0.188c-0.052,0.081-0.096,0.159-0.133,0.236c-0.245,0.509-0.141,0.975,0.278,1.242
					l0.684-0.145C181.553,227.213,181.748,227.15,181.911,226.962z"/>
				<path style="fill:#F4F6EB;" d="M179.908,148.075l0.01,0.053c0.313-0.004,0.678-0.09,0.999-0.29l0.444,0.04l0.555-0.153
					l0.177-0.066c0.119-0.055,0.434-0.204,0.697-0.542l0.198-0.839l-0.136-0.669l-0.104-0.287c-0.258-0.481-0.648-0.799-1.16-0.947
					l-0.714,0.05l-0.513,0.234l-0.168,0.161l-0.696-0.014l-0.61,0.26l-0.588,0.653c-0.503,1.11-0.054,1.911,0.541,2.292l0.81,0.132
					L179.908,148.075z"/>
				<path style="fill:#F4F6EB;" d="M204.069,144.294c0.175-0.364,0.187-0.756,0.04-1.061c-0.138-0.306-0.411-0.531-0.747-0.618
					l-0.344,0.033l-0.275,0.124l0.011,0.08l-0.394,0.084l-0.358,0.28l-0.171,0.354l-0.051,0.253l0.023,0.423l0.077,0.245
					c0.249,0.401,0.66,0.625,1.095,0.599C203.418,145.067,203.847,144.754,204.069,144.294z"/>
				<path style="fill:#F4F6EB;" d="M213.38,164.305c0.153-0.317,0.229-0.665,0.223-1.041l-0.163-0.537l-0.25-0.392l-0.423-0.378
					l-0.873-0.421l-0.789-0.045l-0.589,0.206l-0.591,0.529l-0.502,1.041l-0.042,0.802l0.213,0.59l0.538,0.586
					C211.435,165.853,212.83,165.448,213.38,164.305z"/>
				<path style="fill:#F4F6EB;" d="M188.179,153.403l0.476-0.21l0.589-0.629c0.665-1.38-0.166-2.399-0.467-2.764l-0.114-0.148
					l-0.568-0.37l-0.53-0.133l-0.675,0.061c-0.49,0.219-0.87,0.582-1.093,1.046c-0.284,0.59-0.279,1.275,0.009,1.884
					c0.324,0.662,0.949,1.142,1.725,1.322L188.179,153.403z"/>
				<path style="fill:#F4F6EB;" d="M155.638,118.914l-0.069-0.752l-1.048-0.505l-0.629,0.438c0.035,0.383-0.005,0.631-0.046,0.893
					c-0.051,0.307-0.099,0.629-0.005,1.07l0.513,0.336c0.5-0.09,0.779-0.427,0.957-0.944
					C155.38,119.252,155.461,119.042,155.638,118.914z"/>
				<path style="fill:#F4F6EB;" d="M238.613,195.301l0.121,0.683l0.871-0.983l-0.682,0.075
					C238.848,195.112,238.721,195.171,238.613,195.301z"/>
				<path style="fill:#F4F6EB;" d="M182.87,171.733l0.207,0.589l0.527,0.591l0.35,0.169l0.734,0.063l0.708-0.217
					c0.131-0.058,0.434-0.194,0.699-0.53l0.206-0.832l-0.127-0.672l-0.105-0.301c-0.1-0.184-0.396-0.74-1.171-0.957l-0.705,0.053
					l-0.515,0.231l-0.507,0.496l-0.255,0.528L182.87,171.733z"/>
				<path style="fill:#F4F6EB;" d="M171.621,169.234l0.453,0.126l0.583-0.007c0.486-0.148,0.888-0.505,1.129-1.006
					c0.293-0.608,0.308-1.339,0.042-1.954l-0.528-0.534l-0.54-0.242l-0.74-0.039c-0.652,0.211-1.101,0.574-1.346,1.081
					c-0.167,0.346-0.456,1.258,0.458,2.272L171.621,169.234z"/>
				<path style="fill:#F4F6EB;" d="M149.848,151.307c-0.065-0.183-0.203-0.335-0.392-0.423l-0.642,0.318
					c-0.159,0.027-0.485,0.078-0.663,0.448c-0.036,0.075-0.063,0.155-0.082,0.248l0.144,0.428c0.247,0.211,0.544,0.292,0.839,0.228
					C149.588,152.443,150.019,151.795,149.848,151.307z"/>
				<path style="fill:#F4F6EB;" d="M158.526,146.381c0.207-0.429,0.194-0.896-0.029-1.25c-0.227-0.359-0.62-0.562-1.083-0.56
					l-0.275,0.081l-0.391,0.249l-0.188,0.213l-0.251,0.52l-0.049,0.278l0.047,0.462l0.108,0.268
					c0.287,0.363,0.693,0.544,1.111,0.495C157.945,147.094,158.318,146.812,158.526,146.381z"/>
				<path style="fill:#F4F6EB;" d="M200.001,117.094c0.042-0.068,0.078-0.135,0.109-0.199c0.048-0.1,0.191-0.397,0.032-0.692
					c-0.107-0.2-0.313-0.322-0.608-0.363l-0.196,0.022c-0.297,0.096-0.438,0.272-0.501,0.403c-0.222,0.461,0.145,0.945,0.299,1.148
					l0.789-0.174C199.946,117.193,199.975,117.141,200.001,117.094z"/>
				<path style="fill:#F4F6EB;" d="M169.8,181.686l0.329-0.327l0.273-0.498c0.215-0.936-0.131-1.652-0.379-2.169l-0.406-0.451
					l-0.414-0.25l-0.579-0.148c-0.757,0.032-1.397,0.439-1.711,1.09c-0.355,0.736-0.234,1.642,0.306,2.306
					c0.507,0.632,1.309,0.912,2.09,0.726L169.8,181.686z"/>
				<path style="fill:#F4F6EB;" d="M225.269,181.376l0.183,0.03l0.587-0.136l0.311-0.213c0.055-0.081,0.102-0.162,0.139-0.238
					c0.172-0.357,0.191-0.722,0.058-1.099c-0.247-0.627-0.897-0.894-1.249-1.038l-0.372-0.006l-0.556,0.202l-0.286,0.255
					l-0.056,0.109c-0.23,0.478-0.292,0.935-0.181,1.354l0.084,0.18l0.19,0.26l0.14,0.131c0.414,0.264,0.78,0.247,1.004,0.235
					L225.269,181.376z"/>
				<path style="fill:#F4F6EB;" d="M191.798,176.651c-0.179,0.056-0.604,0.192-0.962,0.605l-0.23,0.89l0.143,0.686l0.564,0.722
					l0.523,0.252l0.852,0.02l0.61-0.257l0.598-0.664c0.601-1.361-0.233-2.072-0.503-2.26l-0.792-0.162L191.798,176.651z"/>
				<path style="fill:#F4F6EB;" d="M133.192,238.289c0.209-0.072,0.362-0.197,0.442-0.363l-0.451-0.217
					c0.023-0.047,0.075-0.079,0.049-0.141c-0.086-0.21-0.549-0.127-0.606-0.079c-0.083,0.078-0.055,0.12-0.069,0.176l-0.448-0.216
					c-0.153,0.317-0.029,0.658,0.288,0.811C132.618,238.371,132.933,238.382,133.192,238.289z"/>
				<path style="fill:#F4F6EB;" d="M187.084,203.923l0.686,0.003l0.516-0.176l0.539-0.42c0.093-0.15,0.176-0.291,0.242-0.429
					c0.628-1.302,0.193-2.373-0.419-2.936l-0.539-0.26l-0.476-0.078l-0.574,0.072c-0.502,0.217-0.912,0.619-1.158,1.129
					c-0.292,0.606-0.323,1.296-0.08,1.899C186.052,203.288,186.5,203.714,187.084,203.923z"/>
				<path style="fill:#F4F6EB;" d="M180.55,129.359c0.09-0.039,0.327-0.14,0.53-0.396l0.103-0.411l-0.148-0.752
					c-0.058-0.138-0.162-0.341-0.391-0.519l-0.403-0.102l-0.751,0.139c-0.087,0.037-0.317,0.135-0.514,0.37l-0.112,0.407l0.141,0.79
					c0.046,0.101,0.144,0.321,0.382,0.508l0.404,0.106L180.55,129.359z"/>
				<path style="fill:#F4F6EB;" d="M226.763,219.518l-0.031,0.339c0.119,0.39,0.538,0.723,0.954,0.764
					c0.345,0.031,0.647-0.132,0.811-0.439l0.031-0.34c-0.122-0.383-0.544-0.716-0.961-0.757
					C227.226,219.053,226.927,219.212,226.763,219.518z"/>
				<path style="fill:#F4F6EB;" d="M239.522,157.764l0.005-0.422c-0.201-0.383-0.545-0.648-1.043-0.808l-0.504,0.18l-0.058,0.103
					c-0.245,0.508,0.046,1.041,0.469,1.261C238.82,158.299,239.299,158.167,239.522,157.764z"/>
			</g>
			<g style="opacity:0.3;">
				<path style="fill:#F4F6EB;" d="M317.234,376.431c0.041-0.086,0.047-0.182,0.015-0.273c-0.057-0.159-0.2-0.247-0.281-0.285
					l-0.085,0.234c-0.009-0.005-0.016-0.003-0.024-0.007l0.109-0.226c-0.247-0.119-0.484-0.07-0.576,0.122l0.231,0.111
					c-0.002,0.005-0.013,0.002-0.016,0.009c0.116,0.093,0.118,0.225,0.341,0.282c0.04-0.027,0.03-0.055,0.041-0.084L317.234,376.431
					z"/>
				<path style="fill:#F4F6EB;" d="M331.908,401.303l-0.272-0.131c0.006-0.009,0.019-0.005,0.022-0.017
					c-0.123-0.064-0.074-0.188-0.242-0.236c-0.04,0.026-0.04,0.055-0.051,0.084l-0.279-0.135c-0.105,0.218,0.003,0.475,0.252,0.595
					l0.129-0.268l0,0l-0.129,0.268c0.086,0.041,0.176,0.059,0.262,0.049C331.734,401.502,331.85,401.423,331.908,401.303z"/>
				<path style="fill:#F4F6EB;" d="M348.333,351.049l-0.178-0.345c-0.133-0.025-0.237-0.071-0.328-0.11
					c-0.13-0.056-0.261-0.115-0.414-0.066l-0.086,0.417c0.034,0.029,0.059,0.07,0.091,0.124c0.078,0.129,0.186,0.305,0.48,0.399
					l0.294-0.128L348.333,351.049z"/>
				<path style="fill:#F4F6EB;" d="M383.068,362.947l0.027-0.216c-0.042-0.12-0.29-0.429-0.559-0.459
					c-0.147-0.018-0.283,0.049-0.361,0.178l0.046,0.312c-0.026-0.021-0.037-0.073-0.041-0.074l0.074,0.34
					C382.751,363.34,383.003,363.045,383.068,362.947z"/>
				<path style="fill:#F4F6EB;" d="M372.121,375.877l0.147-0.012c0.188-0.069,0.34-0.205,0.426-0.383
					c0.126-0.262,0.096-0.586-0.078-0.844l-0.275-0.124l-0.433,0.056l-0.235,0.193l-0.051,0.106
					c-0.242,0.503-0.021,0.785,0.133,0.91l0.132,0.058L372.121,375.877z"/>
				<path style="fill:#F4F6EB;" d="M365.913,363.836l0.377-0.11c0.031-0.089,0.09-0.251,0.006-0.407
					c-0.052-0.099-0.147-0.166-0.279-0.198l-0.289,0.158c-0.007,0.023-0.017,0.045-0.029,0.069c-0.043,0.094-0.17,0.385,0.086,0.549
					l0.163-0.044C365.933,363.849,365.92,363.842,365.913,363.836z"/>
				<path style="fill:#F4F6EB;" d="M363.848,349.059c0.001,0.004,0.001,0.035-0.005,0.097l0.025-0.429
					c-0.157-0.097-0.307-0.125-0.445-0.085c-0.092,0.029-0.22,0.1-0.31,0.287l-0.027,0.066l0.127,0.311
					c0.065,0.029,0.09,0.063,0.135,0.139l0.437-0.039C363.863,349.244,363.854,349.132,363.848,349.059z"/>
				<path style="fill:#F4F6EB;" d="M389.135,382.874l0.323-0.019c0.048-0.047,0.102-0.082,0.154-0.118
					c0.076-0.051,0.153-0.103,0.223-0.17l-0.035-0.379c-0.158-0.103-0.359-0.137-0.537-0.087c-0.14,0.038-0.248,0.122-0.302,0.235
					C388.93,382.403,388.845,382.643,389.135,382.874z"/>
				<path style="fill:#F4F6EB;" d="M383.416,374.149c0.107-0.222,0.027-0.474-0.192-0.597l-0.309,0.06
					c-0.012,0.013-0.032,0.027-0.057,0.047c-0.063,0.046-0.158,0.114-0.224,0.251c-0.019,0.04-0.036,0.083-0.05,0.138l0.086,0.25
					c0.133,0.104,0.285,0.141,0.43,0.107C383.238,374.375,383.353,374.28,383.416,374.149z"/>
				<path style="fill:#F4F6EB;" d="M320.505,394.097c0.104-0.019,0.28-0.051,0.398-0.23l-0.106-0.36
					c-0.225-0.098-0.698-0.03-0.827,0.238c-0.064,0.132-0.033,0.283,0.077,0.401l0.379-0.029
					C320.436,394.109,320.478,394.101,320.505,394.097z"/>
				<path style="fill:#F4F6EB;" d="M342.077,404.084l0.036,0.007c0.111,0.216,0.313,0.491,0.709,0.547
					c0.318,0.045,0.635-0.088,0.845-0.357l0.122-0.354l0-0.303l-0.052-0.232l-0.03-0.099c-0.07-0.239-0.199-0.684-0.657-0.895
					c-0.278-0.127-0.597-0.121-0.9,0.015l-0.336,0.51l-0.007,0.332l-0.073,0.015C341.712,403.698,341.909,403.95,342.077,404.084z"
					/>
				<path style="fill:#F4F6EB;" d="M331.427,384.818l0.127-0.031c0.069-0.035,0.275-0.14,0.382-0.363
					c0.052-0.107,0.19-0.487-0.229-0.851l-0.237-0.066l-0.467,0.093c-0.059,0.031-0.238,0.123-0.344,0.343l-0.042,0.109l0.007,0.218
					l0.129,0.286l0.138,0.141l0.194,0.093l0.124,0.028L331.427,384.818z"/>
				<path style="fill:#F4F6EB;" d="M361.12,416.009l0.142-0.152c0.193-0.492,0.062-0.814-0.082-0.998l-0.141-0.097l-0.264-0.084
					l-0.175,0c-0.217,0.07-0.397,0.225-0.494,0.426c-0.096,0.2-0.102,0.426-0.017,0.621c0.091,0.211,0.278,0.372,0.523,0.447
					l0.208-0.017L361.12,416.009z"/>
				<path style="fill:#F4F6EB;" d="M366.537,404.509c0.076-0.032,0.192-0.088,0.289-0.212l0.059-0.225l-0.074-0.418
					c-0.023-0.053-0.075-0.178-0.2-0.285l-0.23-0.065l-0.451,0.083c-0.054,0.027-0.166,0.08-0.264,0.198l-0.064,0.227l0.077,0.432
					c0.024,0.054,0.08,0.181,0.215,0.286l0.224,0.057L366.537,404.509z"/>
				<path style="fill:#F4F6EB;" d="M329.684,391.5c0.055-0.026,0.17-0.081,0.268-0.201l0.059-0.232l-0.093-0.456
					c-0.039-0.077-0.157-0.307-0.477-0.395l-0.193,0.016l-0.287,0.129l-0.141,0.136l-0.139,0.288l-0.011,0.22l0.114,0.326
					l0.146,0.163l0.192,0.093l0.202,0.019L329.684,391.5z"/>
				<path style="fill:#F4F6EB;" d="M321.754,407.54c0.013,0,0.055,0.01,0.082,0.017c0.118,0.026,0.328,0.076,0.488-0.095
					l-0.084-0.391c-0.059-0.025-0.078-0.053-0.131-0.138l-0.408-0.008c-0.013,0.015-0.065,0.043-0.1,0.062
					c-0.11,0.061-0.234,0.131-0.295,0.258c-0.025,0.052-0.095,0.24,0.096,0.426l0.421-0.174
					C321.813,407.518,321.777,407.541,321.754,407.54z"/>
				<path style="fill:#F4F6EB;" d="M357.904,426.947c0.124-0.258,0.049-0.525-0.183-0.649l-0.365,0.095
					c-0.072,0.022-0.177,0.056-0.267,0.161l0.058,0.406c0.023,0.073,0.057,0.182,0.16,0.272l0.235,0.047
					C357.688,427.234,357.827,427.107,357.904,426.947z"/>
				<path style="fill:#F4F6EB;" d="M332.197,413.67c-0.224-0.119-0.487-0.041-0.613,0.18l0.058,0.31
					c0.013,0.012,0.027,0.028,0.05,0.057c0.062,0.086,0.155,0.213,0.386,0.272l0.251-0.084
					C332.535,414.137,332.462,413.808,332.197,413.67z"/>
				<path style="fill:#F4F6EB;" d="M341.972,410.806l0.165,0.238l0.209,0.139c0.412,0.205,0.733,0.167,0.955-0.113l0.054-0.24
					l-0.025-0.116l0.028-0.02c0.137-0.448-0.084-0.68-0.227-0.778l-0.109-0.045l-0.227-0.044c-0.354-0.073-0.638,0.052-0.78,0.348
					c-0.058,0.12-0.087,0.266-0.094,0.456L341.972,410.806z"/>
				<path style="fill:#F4F6EB;" d="M336.604,408.857l0.081-0.24l-0.051-0.383l-0.139-0.21c-0.182-0.105-0.518-0.301-0.882-0.19
					c-0.199,0.062-0.363,0.205-0.46,0.408c-0.02,0.041-0.036,0.084-0.053,0.139l0.019,0.217l0.159,0.305l0.166,0.14
					C335.626,409.103,336.185,409.283,336.604,408.857z"/>
				<path style="fill:#F4F6EB;" d="M337.594,424.615c-0.249-0.301-0.503-0.628-0.649-0.985l-0.465,0.055
					c-0.053,0.32,0.092,0.747,0.354,1.04c0.177,0.2,0.379,0.3,0.584,0.288L337.594,424.615z"/>
				<path style="fill:#F4F6EB;" d="M348.296,420.328l-0.032-0.35c-0.014-0.011-0.028-0.031-0.048-0.057
					c-0.061-0.085-0.151-0.212-0.38-0.274l-0.268,0.104c-0.029,0.045-0.053,0.088-0.074,0.131c-0.136,0.282-0.078,0.54,0.154,0.688
					l0.379-0.08C348.097,420.466,348.205,420.432,348.296,420.328z"/>
				<path style="fill:#F4F6EB;" d="M347.186,376.647l0.006,0.029c0.173-0.002,0.375-0.05,0.553-0.161l0.246,0.022l0.307-0.085
					l0.098-0.037c0.066-0.031,0.24-0.113,0.386-0.3l0.11-0.465l-0.075-0.371l-0.057-0.159c-0.143-0.266-0.359-0.442-0.642-0.524
					l-0.395,0.028l-0.284,0.129l-0.093,0.089l-0.385-0.008l-0.338,0.144l-0.325,0.362c-0.279,0.615-0.03,1.058,0.299,1.269
					l0.449,0.073L347.186,376.647z"/>
				<path style="fill:#F4F6EB;" d="M360.565,374.553c0.097-0.202,0.103-0.419,0.022-0.587c-0.077-0.169-0.228-0.294-0.413-0.342
					l-0.19,0.018l-0.152,0.069l0.006,0.044l-0.218,0.047l-0.198,0.155l-0.094,0.196l-0.028,0.14l0.013,0.234l0.043,0.136
					c0.138,0.222,0.365,0.346,0.606,0.332C360.204,374.981,360.442,374.808,360.565,374.553z"/>
				<path style="fill:#F4F6EB;" d="M365.721,385.634c0.085-0.176,0.127-0.368,0.123-0.576l-0.09-0.297l-0.139-0.217l-0.234-0.209
					l-0.483-0.233l-0.437-0.025l-0.326,0.114l-0.327,0.293l-0.278,0.577l-0.023,0.444l0.118,0.327l0.298,0.324
					C364.643,386.491,365.416,386.266,365.721,385.634z"/>
				<path style="fill:#F4F6EB;" d="M351.766,379.597l0.263-0.116l0.326-0.348c0.368-0.764-0.092-1.328-0.258-1.531l-0.063-0.082
					l-0.314-0.205l-0.294-0.074l-0.374,0.034c-0.271,0.121-0.482,0.322-0.605,0.579c-0.157,0.326-0.154,0.706,0.005,1.043
					c0.179,0.366,0.526,0.633,0.955,0.732L351.766,379.597z"/>
				<path style="fill:#F4F6EB;" d="M333.748,360.5l-0.038-0.416l-0.58-0.28l-0.349,0.243c0.019,0.212-0.003,0.349-0.026,0.495
					c-0.028,0.17-0.055,0.348-0.003,0.592l0.284,0.186c0.277-0.05,0.431-0.236,0.53-0.522
					C333.605,360.687,333.65,360.571,333.748,360.5z"/>
				<path style="fill:#F4F6EB;" d="M379.692,402.797l0.067,0.378l0.482-0.544l-0.378,0.042
					C379.822,402.692,379.752,402.724,379.692,402.797z"/>
				<path style="fill:#F4F6EB;" d="M348.827,389.747l0.115,0.326l0.292,0.327l0.194,0.093l0.406,0.035l0.392-0.12
					c0.073-0.032,0.24-0.108,0.387-0.293l0.114-0.461l-0.07-0.372l-0.058-0.167c-0.056-0.102-0.219-0.41-0.649-0.53l-0.391,0.029
					l-0.285,0.128l-0.281,0.275l-0.141,0.292L348.827,389.747z"/>
				<path style="fill:#F4F6EB;" d="M342.598,388.363l0.251,0.07l0.323-0.004c0.269-0.082,0.492-0.28,0.625-0.557
					c0.162-0.337,0.17-0.741,0.023-1.082l-0.292-0.296l-0.299-0.134l-0.41-0.022c-0.361,0.117-0.61,0.318-0.745,0.598
					c-0.092,0.192-0.253,0.696,0.254,1.258L342.598,388.363z"/>
				<path style="fill:#F4F6EB;" d="M330.542,378.437c-0.036-0.101-0.112-0.186-0.217-0.234l-0.356,0.176
					c-0.088,0.015-0.269,0.043-0.367,0.248c-0.02,0.041-0.035,0.086-0.045,0.137l0.08,0.237c0.137,0.117,0.301,0.162,0.465,0.126
					C330.398,379.065,330.636,378.706,330.542,378.437z"/>
				<path style="fill:#F4F6EB;" d="M335.347,375.709c0.114-0.237,0.108-0.496-0.016-0.692c-0.126-0.199-0.344-0.311-0.599-0.31
					l-0.152,0.045l-0.217,0.138l-0.104,0.118l-0.139,0.288l-0.027,0.154l0.026,0.256l0.06,0.149
					c0.159,0.201,0.384,0.301,0.615,0.274C335.025,376.104,335.232,375.948,335.347,375.709z"/>
				<path style="fill:#F4F6EB;" d="M358.312,359.492c0.024-0.038,0.043-0.075,0.06-0.11c0.027-0.055,0.106-0.22,0.017-0.383
					c-0.059-0.111-0.173-0.178-0.337-0.201l-0.109,0.012c-0.164,0.053-0.242,0.151-0.277,0.223
					c-0.123,0.255,0.081,0.523,0.166,0.636l0.437-0.096C358.282,359.547,358.298,359.518,358.312,359.492z"/>
				<path style="fill:#F4F6EB;" d="M341.589,395.257l0.182-0.181l0.151-0.276c0.119-0.518-0.072-0.915-0.21-1.201l-0.225-0.25
					l-0.229-0.138l-0.321-0.082c-0.419,0.018-0.773,0.243-0.947,0.604c-0.197,0.408-0.13,0.909,0.17,1.277
					c0.281,0.35,0.725,0.505,1.157,0.402L341.589,395.257z"/>
				<path style="fill:#F4F6EB;" d="M372.303,395.086l0.101,0.017l0.325-0.075l0.172-0.118c0.031-0.045,0.057-0.09,0.077-0.132
					c0.095-0.197,0.106-0.4,0.032-0.609c-0.137-0.347-0.496-0.495-0.691-0.575l-0.206-0.004l-0.308,0.112l-0.158,0.141l-0.031,0.06
					c-0.128,0.265-0.162,0.518-0.1,0.75l0.047,0.099l0.105,0.144l0.078,0.072c0.229,0.146,0.432,0.137,0.556,0.13L372.303,395.086z"
					/>
				<path style="fill:#F4F6EB;" d="M353.77,392.47c-0.099,0.031-0.335,0.106-0.533,0.335l-0.128,0.493l0.079,0.38l0.312,0.4
					l0.289,0.139l0.472,0.011l0.338-0.142l0.331-0.368c0.333-0.753-0.129-1.147-0.278-1.252l-0.439-0.09L353.77,392.47z"/>
				<path style="fill:#F4F6EB;" d="M321.319,426.6c0.116-0.04,0.2-0.109,0.245-0.201l-0.25-0.12
					c0.013-0.026,0.042-0.043,0.027-0.078c-0.048-0.116-0.304-0.071-0.336-0.044c-0.046,0.043-0.03,0.067-0.038,0.098l-0.248-0.12
					c-0.085,0.176-0.016,0.364,0.159,0.449C321.002,426.645,321.176,426.651,321.319,426.6z"/>
				<path style="fill:#F4F6EB;" d="M351.16,407.57l0.38,0.002l0.286-0.097l0.298-0.233c0.052-0.083,0.097-0.161,0.134-0.238
					c0.348-0.721,0.107-1.314-0.232-1.626l-0.298-0.144l-0.263-0.043l-0.318,0.04c-0.278,0.12-0.505,0.343-0.641,0.625
					c-0.162,0.336-0.179,0.718-0.044,1.051C350.588,407.219,350.837,407.455,351.16,407.57z"/>
				<path style="fill:#F4F6EB;" d="M347.542,366.284c0.05-0.022,0.181-0.077,0.293-0.219l0.057-0.227l-0.082-0.417
					c-0.032-0.076-0.09-0.189-0.216-0.288l-0.223-0.057l-0.416,0.077c-0.048,0.02-0.175,0.075-0.285,0.205l-0.062,0.226l0.078,0.437
					c0.026,0.056,0.08,0.178,0.211,0.281l0.224,0.059L347.542,366.284z"/>
				<path style="fill:#F4F6EB;" d="M373.131,416.206l-0.017,0.187c0.066,0.216,0.298,0.4,0.528,0.423
					c0.191,0.017,0.358-0.073,0.449-0.243l0.017-0.188c-0.067-0.212-0.301-0.396-0.532-0.419
					C373.387,415.948,373.221,416.036,373.131,416.206z"/>
				<path style="fill:#F4F6EB;" d="M380.196,382.012l0.003-0.234c-0.111-0.212-0.302-0.359-0.577-0.447l-0.279,0.1l-0.032,0.057
					c-0.136,0.281,0.025,0.576,0.26,0.698C379.807,382.308,380.072,382.235,380.196,382.012z"/>
			</g>
			<g style="opacity:0.56;">
				<path style="fill:#F4F6EB;" d="M366.895,133.856c-0.102-0.019-0.206,0.003-0.294,0.062c-0.152,0.105-0.204,0.282-0.222,0.379
					l0.271,0.023c-0.002,0.011,0.001,0.018-0.001,0.028l-0.271-0.051c-0.055,0.296,0.065,0.532,0.294,0.575l0.052-0.276
					c0.006,0.001,0.006,0.013,0.014,0.014c0.066-0.149,0.204-0.19,0.201-0.442c-0.04-0.034-0.067-0.016-0.101-0.019L366.895,133.856
					z"/>
				<path style="fill:#F4F6EB;" d="M389.017,111.215l-0.061,0.326c-0.011-0.004-0.011-0.018-0.024-0.018
					c-0.032,0.148-0.177,0.132-0.18,0.324c0.039,0.035,0.07,0.026,0.103,0.03l-0.063,0.334c0.261,0.049,0.502-0.139,0.558-0.437
					l-0.32-0.06l0,0l0.32,0.06c0.019-0.102,0.012-0.203-0.023-0.291C389.277,111.342,389.16,111.242,389.017,111.215z"/>
				<path style="fill:#F4F6EB;" d="M331.142,108.208l-0.314,0.287c0.012,0.148-0.008,0.271-0.022,0.378
					c-0.023,0.154-0.047,0.309,0.048,0.457l0.466-0.029c0.021-0.044,0.058-0.082,0.105-0.132c0.114-0.12,0.27-0.284,0.284-0.622
					l-0.219-0.274L331.142,108.208z"/>
				<path style="fill:#F4F6EB;" d="M333.798,68.051l-0.236,0.033c-0.115,0.079-0.371,0.43-0.326,0.722
					c0.023,0.161,0.133,0.285,0.292,0.331L333.845,69c-0.014,0.033-0.066,0.06-0.067,0.065l0.339-0.175
					C334.305,68.274,333.92,68.091,333.798,68.051z"/>
				<path style="fill:#F4F6EB;" d="M350.611,75.937l-0.055-0.152c-0.126-0.179-0.315-0.302-0.527-0.341
					c-0.313-0.059-0.647,0.066-0.871,0.324l-0.052,0.326l0.183,0.442l0.272,0.194l0.127,0.024c0.601,0.113,0.836-0.203,0.925-0.401
					l0.024-0.156L350.611,75.937z"/>
				<path style="fill:#F4F6EB;" d="M339.646,85.949l-0.224-0.368c-0.103-0.007-0.291-0.024-0.433,0.11
					c-0.09,0.083-0.133,0.203-0.13,0.352l0.25,0.261c0.026,0,0.053,0.005,0.081,0.011c0.112,0.018,0.456,0.07,0.556-0.248
					l-0.093-0.16C339.654,85.925,339.649,85.94,339.646,85.949z"/>
				<path style="fill:#F4F6EB;" d="M324.6,92.36c0.004-0.002,0.036-0.011,0.104-0.022l-0.462,0.096
					c-0.058,0.194-0.044,0.361,0.037,0.496c0.057,0.089,0.169,0.204,0.392,0.246l0.077,0.01l0.292-0.224
					c0.012-0.077,0.041-0.113,0.109-0.183l-0.166-0.452C324.792,92.292,324.675,92.333,324.6,92.36z"/>
				<path style="fill:#F4F6EB;" d="M353.149,55.932l-0.112-0.336c-0.063-0.038-0.115-0.084-0.169-0.129
					c-0.076-0.066-0.153-0.132-0.244-0.188l-0.391,0.145c-0.064,0.196-0.042,0.419,0.062,0.593c0.08,0.137,0.2,0.227,0.335,0.252
					C352.709,56.284,352.987,56.305,353.149,55.932z"/>
				<path style="fill:#F4F6EB;" d="M345.552,64.479c-0.266-0.05-0.509,0.107-0.577,0.374l0.152,0.31
					c0.017,0.009,0.037,0.026,0.066,0.047c0.066,0.054,0.166,0.134,0.329,0.165c0.048,0.009,0.098,0.014,0.16,0.014l0.24-0.162
					c0.072-0.171,0.068-0.342-0.01-0.486C345.842,64.603,345.709,64.508,345.552,64.479z"/>
				<path style="fill:#F4F6EB;" d="M384.653,125.343c-0.05-0.105-0.134-0.281-0.357-0.355l-0.351,0.216
					c-0.039,0.267,0.168,0.747,0.488,0.807c0.158,0.03,0.309-0.045,0.402-0.196l-0.139-0.393
					C384.685,125.412,384.665,125.37,384.653,125.343z"/>
				<path style="fill:#F4F6EB;" d="M389.051,99.66l-0.003-0.04c0.197-0.18,0.43-0.472,0.375-0.907
					c-0.043-0.349-0.275-0.646-0.62-0.791l-0.409-0.028l-0.321,0.087l-0.231,0.121l-0.096,0.06
					c-0.233,0.142-0.667,0.407-0.759,0.951c-0.055,0.33,0.042,0.666,0.273,0.948l0.635,0.21l0.354-0.087l0.037,0.073
					C388.747,100.156,388.957,99.876,389.051,99.66z"/>
				<path style="fill:#F4F6EB;" d="M371.711,116.439l-0.069-0.126c-0.057-0.063-0.227-0.251-0.493-0.301
					c-0.128-0.024-0.569-0.062-0.835,0.486l-0.002,0.269l0.232,0.467c0.049,0.053,0.198,0.217,0.461,0.266l0.127,0.013l0.229-0.07
					l0.265-0.218l0.109-0.186l0.043-0.232l-0.005-0.139L371.711,116.439z"/>
				<path style="fill:#F4F6EB;" d="M396.222,76.099l-0.202-0.107c-0.576-0.064-0.879,0.168-1.033,0.373l-0.063,0.177l-0.014,0.304
					l0.051,0.186c0.136,0.21,0.352,0.356,0.592,0.401c0.239,0.045,0.48-0.014,0.661-0.16c0.197-0.157,0.314-0.4,0.323-0.681
					l-0.077-0.216L396.222,76.099z"/>
				<path style="fill:#F4F6EB;" d="M382.505,73.656c-0.056-0.072-0.148-0.178-0.307-0.245l-0.255,0.002l-0.421,0.198
					c-0.049,0.039-0.166,0.131-0.244,0.293l-0.003,0.262l0.217,0.454c0.044,0.049,0.132,0.153,0.285,0.223l0.258,0.003l0.435-0.205
					c0.051-0.041,0.169-0.136,0.241-0.31l-0.004-0.253L382.505,73.656z"/>
				<path style="fill:#F4F6EB;" d="M379.279,116.372c-0.044-0.05-0.134-0.156-0.289-0.226l-0.262,0.004l-0.455,0.229
					c-0.07,0.063-0.28,0.254-0.282,0.618l0.072,0.199l0.218,0.267l0.184,0.111l0.345,0.065l0.236-0.051l0.312-0.214l0.131-0.201
					l0.043-0.23l-0.038-0.219L379.279,116.372z"/>
				<path style="fill:#F4F6EB;" d="M398.52,120.176c-0.004-0.014-0.006-0.061-0.006-0.092c-0.006-0.132-0.013-0.369-0.24-0.489
					l-0.39,0.201c-0.009,0.07-0.034,0.098-0.109,0.178l0.108,0.434c0.02,0.01,0.064,0.057,0.094,0.088
					c0.096,0.099,0.205,0.21,0.358,0.238c0.063,0.012,0.281,0.032,0.424-0.223l-0.304-0.396
					C398.48,120.12,398.514,120.151,398.52,120.176z"/>
				<path style="fill:#F4F6EB;" d="M408.717,76.374c-0.308-0.058-0.57,0.098-0.634,0.38l0.205,0.359
					c0.044,0.07,0.11,0.171,0.247,0.237l0.413-0.178c0.07-0.045,0.176-0.112,0.242-0.247l-0.018-0.262
					C409.082,76.52,408.908,76.409,408.717,76.374z"/>
				<path style="fill:#F4F6EB;" d="M402.02,107.372c-0.062,0.271,0.096,0.527,0.366,0.597l0.312-0.15
					c0.009-0.017,0.022-0.037,0.046-0.069c0.074-0.09,0.181-0.225,0.177-0.486l-0.16-0.241
					C402.417,106.882,402.09,107.053,402.02,107.372z"/>
				<path style="fill:#F4F6EB;" d="M396.194,97.849l0.204-0.243l0.088-0.261c0.099-0.494-0.033-0.824-0.393-0.978l-0.27,0.011
					l-0.115,0.059l-0.029-0.024c-0.513-0.017-0.695,0.283-0.758,0.462l-0.017,0.128l0.019,0.253c0.024,0.396,0.238,0.66,0.592,0.726
					c0.143,0.027,0.306,0.016,0.51-0.031L396.194,97.849z"/>
				<path style="fill:#F4F6EB;" d="M395.667,104.085l-0.277-0.018l-0.391,0.164l-0.182,0.207c-0.06,0.222-0.17,0.635,0.051,0.988
					c0.122,0.193,0.321,0.325,0.563,0.37c0.05,0.009,0.1,0.014,0.162,0.016l0.224-0.082l0.278-0.255l0.101-0.215
					C396.207,105.05,396.237,104.408,395.667,104.085z"/>
				<path style="fill:#F4F6EB;" d="M412.058,98.532c-0.248,0.35-0.521,0.712-0.857,0.969l0.191,0.476
					c0.353-0.035,0.764-0.311,0.999-0.673c0.161-0.245,0.209-0.487,0.137-0.701L412.058,98.532z"/>
				<path style="fill:#F4F6EB;" d="M404.46,88.434l-0.361,0.134c-0.008,0.018-0.024,0.038-0.047,0.067
					c-0.072,0.089-0.181,0.22-0.182,0.481l0.187,0.254c0.056,0.018,0.108,0.031,0.159,0.041c0.337,0.063,0.594-0.072,0.684-0.36
					l-0.193-0.378C404.664,88.604,404.596,88.499,404.46,88.434z"/>
				<path style="fill:#F4F6EB;" d="M358.557,102.1l0.03-0.014c-0.052-0.183-0.16-0.383-0.328-0.539l-0.047-0.267l-0.177-0.301
					l-0.067-0.093c-0.051-0.061-0.188-0.222-0.428-0.323l-0.523,0.017l-0.371,0.186l-0.152,0.106
					c-0.241,0.227-0.365,0.506-0.371,0.83l0.142,0.41l0.218,0.264l0.121,0.073l0.102,0.41l0.249,0.316l0.476,0.241
					c0.73,0.119,1.128-0.271,1.257-0.68l-0.051-0.495L358.557,102.1z"/>
				<path style="fill:#F4F6EB;" d="M352.516,88.543c-0.241-0.045-0.472,0.01-0.628,0.145c-0.157,0.129-0.246,0.325-0.244,0.535
					l0.074,0.196l0.116,0.141l0.045-0.019l0.112,0.218l0.221,0.165l0.234,0.044l0.156-0.01l0.244-0.081l0.131-0.084
					c0.196-0.209,0.262-0.485,0.177-0.736C353.072,88.802,352.82,88.6,352.516,88.543z"/>
				<path style="fill:#F4F6EB;" d="M362.766,79.918c-0.21-0.039-0.426-0.029-0.645,0.034l-0.289,0.18l-0.19,0.209l-0.155,0.308
					l-0.108,0.578l0.099,0.469l0.214,0.312l0.404,0.262l0.69,0.129l0.476-0.102l0.312-0.218l0.258-0.408
					C363.98,80.813,363.522,80.06,362.766,79.918z"/>
				<path style="fill:#F4F6EB;" d="M360.369,96.41l-0.198-0.246l-0.462-0.245c-0.914-0.171-1.379,0.477-1.546,0.711l-0.069,0.09
					l-0.127,0.391l0.006,0.332l0.142,0.386c0.206,0.252,0.479,0.417,0.786,0.475c0.39,0.073,0.791-0.039,1.102-0.304
					c0.336-0.295,0.519-0.737,0.502-1.22L360.369,96.41z"/>
				<path style="fill:#F4F6EB;" d="M345.315,120.938l-0.43,0.159l-0.13,0.694l0.356,0.299c0.219-0.081,0.37-0.097,0.531-0.114
					c0.188-0.019,0.384-0.041,0.628-0.166l0.116-0.354c-0.132-0.279-0.374-0.389-0.704-0.411
					C345.554,121.036,345.418,121.021,345.315,120.938z"/>
				<path style="fill:#F4F6EB;" d="M376.93,60.226l0.381-0.179l-0.714-0.355l0.152,0.388
					C376.782,60.118,376.837,60.183,376.93,60.226z"/>
				<path style="fill:#F4F6EB;" d="M371.949,96.618l0.312-0.214l0.263-0.403l0.043-0.232l-0.079-0.44l-0.239-0.381
					c-0.055-0.068-0.183-0.224-0.421-0.326l-0.52,0.011l-0.373,0.181l-0.16,0.109c-0.092,0.088-0.371,0.349-0.375,0.838l0.143,0.405
					l0.217,0.265l0.371,0.219l0.35,0.065L371.949,96.618z"/>
				<path style="fill:#F4F6EB;" d="M372.267,103.605l0.002-0.285l-0.096-0.34c-0.164-0.262-0.437-0.44-0.768-0.502
					c-0.403-0.075-0.833,0.032-1.152,0.285l-0.229,0.394l-0.057,0.355l0.094,0.44c0.227,0.349,0.51,0.555,0.846,0.617
					c0.229,0.043,0.809,0.068,1.258-0.628L372.267,103.605z"/>
				<path style="fill:#F4F6EB;" d="M365.211,119.201c-0.097,0.067-0.164,0.172-0.186,0.297l0.288,0.326
					c0.041,0.089,0.123,0.272,0.367,0.318c0.049,0.009,0.101,0.013,0.158,0.009l0.228-0.152c0.085-0.178,0.085-0.365,0.001-0.528
					C365.918,119.173,365.47,119.024,365.211,119.201z"/>
				<path style="fill:#F4F6EB;" d="M360.951,114.896c-0.284-0.053-0.556,0.028-0.727,0.215c-0.175,0.19-0.231,0.452-0.157,0.723
					l0.091,0.148l0.208,0.19l0.155,0.076l0.345,0.065l0.171-0.015l0.263-0.101l0.14-0.106c0.167-0.225,0.209-0.492,0.114-0.729
					C361.46,115.124,361.236,114.95,360.951,114.896z"/>
				<path style="fill:#F4F6EB;" d="M337.223,95.234c-0.047-0.014-0.091-0.024-0.134-0.032c-0.066-0.012-0.263-0.049-0.41,0.091
					c-0.1,0.094-0.139,0.234-0.116,0.414l0.044,0.112c0.103,0.159,0.229,0.213,0.315,0.23c0.305,0.057,0.531-0.235,0.626-0.357
					l-0.227-0.435C337.29,95.25,337.255,95.242,337.223,95.234z"/>
				<path style="fill:#F4F6EB;" d="M379.85,102.7l-0.244-0.141l-0.335-0.081c-0.583,0.022-0.947,0.338-1.211,0.566l-0.2,0.309
					l-0.081,0.282l0.005,0.363c0.139,0.438,0.479,0.749,0.91,0.83c0.488,0.091,0.999-0.123,1.303-0.545
					c0.29-0.397,0.327-0.911,0.094-1.339L379.85,102.7z"/>
				<path style="fill:#F4F6EB;" d="M370.885,70.25l-0.011-0.112l-0.172-0.322l-0.174-0.149c-0.056-0.02-0.111-0.034-0.161-0.044
					c-0.236-0.044-0.453,0.002-0.653,0.14c-0.329,0.244-0.382,0.667-0.41,0.896l0.055,0.219l0.206,0.294l0.195,0.127l0.073,0.015
					c0.317,0.059,0.594,0.023,0.822-0.108l0.092-0.078l0.122-0.152l0.054-0.103c0.089-0.284,0.021-0.496-0.021-0.626L370.885,70.25z
					"/>
				<path style="fill:#F4F6EB;" d="M373.417,90.609c0.061,0.096,0.208,0.324,0.507,0.468l0.558-0.006l0.379-0.192l0.334-0.445
					l0.065-0.346l-0.123-0.503l-0.247-0.317l-0.484-0.245c-0.892-0.137-1.177,0.465-1.245,0.653l0.03,0.49L373.417,90.609z"/>
				<path style="fill:#F4F6EB;" d="M418.812,115.185c-0.075-0.111-0.173-0.181-0.283-0.201l-0.056,0.299
					c-0.031-0.006-0.058-0.032-0.09-0.006c-0.109,0.084,0.012,0.342,0.05,0.368c0.059,0.036,0.079,0.013,0.114,0.013l-0.056,0.297
					c0.21,0.039,0.39-0.087,0.429-0.297C418.951,115.508,418.908,115.322,418.812,115.185z"/>
				<path style="fill:#F4F6EB;" d="M390.142,89.051l-0.107-0.403l-0.185-0.274l-0.332-0.249c-0.103-0.031-0.198-0.057-0.29-0.074
					c-0.862-0.161-1.421,0.263-1.654,0.711l-0.067,0.357l0.03,0.291l0.133,0.325c0.207,0.26,0.507,0.436,0.845,0.5
					c0.402,0.075,0.81-0.016,1.125-0.254C389.933,89.757,390.112,89.427,390.142,89.051z"/>
				<path style="fill:#F4F6EB;" d="M347.49,104.688c-0.037-0.046-0.134-0.17-0.316-0.248l-0.257,0.005l-0.417,0.206
					c-0.072,0.056-0.174,0.149-0.242,0.311l0.004,0.252l0.2,0.418c0.035,0.045,0.129,0.164,0.299,0.243l0.257,0.001l0.44-0.208
					c0.052-0.043,0.165-0.135,0.237-0.304l-0.002-0.254L347.49,104.688z"/>
				<path style="fill:#F4F6EB;" d="M392.995,63.334l0.203-0.036c0.21-0.131,0.338-0.43,0.296-0.68
					c-0.037-0.207-0.18-0.358-0.386-0.406l-0.204,0.036c-0.205,0.132-0.333,0.432-0.291,0.683
					C392.65,63.136,392.79,63.286,392.995,63.334z"/>
				<path style="fill:#F4F6EB;" d="M354.793,65.637l-0.248,0.064c-0.193,0.179-0.294,0.422-0.308,0.739l0.185,0.266l0.07,0.017
					c0.337,0.063,0.603-0.192,0.664-0.475C355.218,65.964,355.064,65.704,354.793,65.637z"/>
			</g>
		</g>
		<circle style="fill:#EE5829;" cx="397.088" cy="252.666" r="1.277"/>
		<circle style="fill:#EE5829;" cx="484.03" cy="243.35" r="1.277"/>
		<circle style="opacity:0.59;fill:#F4F6EB;" cx="350.727" cy="296.727" r="1.277"/>
		<circle style="opacity:0.59;fill:#F4F6EB;" cx="286.36" cy="209.358" r="1.277"/>
		<circle style="opacity:0.59;fill:#F4F6EB;" cx="218.385" cy="60.226" r="1.277"/>
		<circle style="opacity:0.59;fill:#F4F6EB;" cx="215.484" cy="312.159" r="1.277"/>
		<circle style="opacity:0.59;fill:#F4F6EB;" cx="477.495" cy="416.818" r="1.277"/>
		<circle style="opacity:0.59;fill:#F4F6EB;" cx="482.754" cy="476.896" r="1.277"/>
		<circle style="opacity:0.59;fill:#F4F6EB;" cx="175.238" cy="47.884" r="1.277"/>
		<circle style="opacity:0.59;fill:#F4F6EB;" cx="384.986" cy="212.978" r="1.277"/>
		<circle style="opacity:0.59;fill:#F4F6EB;" cx="406.685" cy="30.245" r="1.277"/>
		<circle style="opacity:0.59;fill:#F4F6EB;" cx="173.073" cy="347.725" r="1.277"/>
		<circle style="opacity:0.59;fill:#F4F6EB;" cx="172.256" cy="437.518" r="1.277"/>
		<circle style="opacity:0.59;fill:#F4F6EB;" cx="28.423" cy="484.408" r="1.277"/>
		<circle style="opacity:0.59;fill:#F4F6EB;" cx="53.427" cy="61.139" r="1.277"/>
		<circle style="opacity:0.59;fill:#F4F6EB;" cx="332.447" cy="444.873" r="1.277"/>
		<circle style="opacity:0.59;fill:#F4F6EB;" cx="38.112" cy="196.093" r="1.277"/>
		<circle style="opacity:0.59;fill:#F4F6EB;" cx="20.303" cy="158.185" r="1.277"/>
		<circle style="fill:#EE5829;" cx="211.886" cy="384.819" r="1.277"/>
		<circle style="fill:#EE5829;" cx="166.711" cy="392.376" r="1.277"/>
		<circle style="fill:#EE5829;" cx="50.011" cy="321.678" r="1.277"/>
		<circle style="fill:#EE5829;" cx="123.198" cy="423.63" r="1.277"/>
		<circle style="fill:#EE5829;" cx="407.815" cy="483.132" r="1.277"/>
		<circle style="fill:#EE5829;" cx="463.656" cy="381.788" r="1.277"/>
		<circle style="fill:#EE5829;" cx="264.404" cy="281.086" r="1.277"/>
		<circle style="fill:#EE5829;" cx="130.543" cy="318.187" r="1.277"/>
		<circle style="fill:#EE5829;" cx="136.934" cy="85.576" r="1.277"/>
		<circle style="fill:#EE5829;" cx="80.448" cy="92.2" r="1.277"/>
		<circle style="fill:#EE5829;" cx="261.606" cy="71.342" r="1.277"/>
		<circle style="fill:#EE5829;" cx="337.547" cy="192.094" r="1.277"/>
		<circle style="fill:#EE5829;" cx="463.795" cy="227.398" r="1.277"/>
		<circle style="fill:#EE5829;" cx="462.519" cy="261.199" r="1.277"/>
		<circle style="fill:#EE5829;" cx="94.017" cy="227.398" r="1.277"/>
		<g>
			<g>
				<polygon style="fill:#E54D25;" points="459.059,106.713 458.56,106.745 453.902,33.194 442.101,13.867 412.443,70.069 
					436.608,84.076 436.357,84.508 411.777,70.261 411.889,70.048 442.069,12.855 454.397,33.1 				"/>
			</g>
			<g>
				<circle style="fill:#E54D25;" cx="441.793" cy="13.192" r="1.75"/>
			</g>
			<g>
				<circle style="fill:#E54D25;" cx="454.147" cy="33.116" r="2.006"/>
			</g>
			<g>
				<circle style="fill:#E54D25;" cx="458.698" cy="105.936" r="2.006"/>
			</g>
			<g>
				<circle style="fill:#E54D25;" cx="412.111" cy="70.165" r="2.006"/>
			</g>
			<g>
				<circle style="fill:#E54D25;" cx="436.198" cy="83.635" r="2.006"/>
			</g>
		</g>
		<g>
			<g>
				<polygon style="fill:#F4F6EB;" points="43.226,111.005 28.739,47.634 91.729,47.634 81.048,15.797 81.522,15.638 92.424,48.134 
					29.366,48.134 43.713,110.894 				"/>
			</g>
			<g>
				<circle style="fill:#F4F6EB;" cx="81.285" cy="15.717" r="1.465"/>
			</g>
			<g>
				<circle style="fill:#F4F6EB;" cx="91.923" cy="47.426" r="1.956"/>
			</g>
			<g>
				<circle style="fill:#F4F6EB;" cx="29.053" cy="47.884" r="2.285"/>
			</g>
			<g>
				<circle style="fill:#F4F6EB;" cx="43.469" cy="110.95" r="1.656"/>
			</g>
		</g>
		
			<linearGradient id="SVGID_1_" gradientUnits="userSpaceOnUse" x1="293.4388" y1="491.8388" x2="294.4377" y2="427.5136" gradientTransform="matrix(-0.7894 0.6139 -0.6139 -0.7894 970.3491 612.9929)">
			<stop  offset="0" style="stop-color:#FFFFFF;stop-opacity:0.1"/>
			<stop  offset="1" style="stop-color:#EE5829"/>
		</linearGradient>
		<path style="fill:url(#SVGID_1_);" d="M447.884,420.548l24.905,29.438c0,0,2.904,3.233,1.307,4.266
			c-1.76,1.139-3.884-2.215-3.884-2.215L447.884,420.548z"/>
		
			<linearGradient id="SVGID_00000181076621523276582770000004674051083078304647_" gradientUnits="userSpaceOnUse" x1="459.8907" y1="726.3676" x2="460.8895" y2="662.0423" gradientTransform="matrix(-0.9465 -0.3226 0.3226 -0.9465 400.4465 1152.3206)">
			<stop  offset="0" style="stop-color:#FFFFFF;stop-opacity:0.1"/>
			<stop  offset="1" style="stop-color:#EE5829"/>
		</linearGradient>
		<path style="fill:url(#SVGID_00000181076621523276582770000004674051083078304647_);" d="M192.519,334.304l-10.928,36.979
			c0,0-1.107,4.202-2.848,3.435c-1.918-0.845-0.281-4.462-0.281-4.462L192.519,334.304z"/>
		
			<linearGradient id="SVGID_00000106149418776567159770000016469803953177954237_" gradientUnits="userSpaceOnUse" x1="392.6174" y1="1060.7692" x2="393.6162" y2="996.444" gradientTransform="matrix(-0.9465 -0.3226 0.3226 -0.9465 400.4465 1152.3206)">
			<stop  offset="0" style="stop-color:#FFFFFF;stop-opacity:0.1"/>
			<stop  offset="1" style="stop-color:#EE5829"/>
		</linearGradient>
		<path style="fill:url(#SVGID_00000106149418776567159770000016469803953177954237_);" d="M364.086,39.491L353.158,76.47
			c0,0-1.107,4.202-2.848,3.435c-1.918-0.845-0.281-4.462-0.281-4.462L364.086,39.491z"/>
		
			<linearGradient id="SVGID_00000163788826057971385900000001721194140568022175_" gradientUnits="userSpaceOnUse" x1="499.8543" y1="929.5787" x2="500.8531" y2="865.2535" gradientTransform="matrix(-0.9329 -0.3601 0.3601 -0.9329 175.8158 1236.2144)">
			<stop  offset="0" style="stop-color:#FFFFFF;stop-opacity:0.1"/>
			<stop  offset="1" style="stop-color:#EE5829"/>
		</linearGradient>
		<path style="opacity:0.42;fill:url(#SVGID_00000163788826057971385900000001721194140568022175_);" d="M36.543,206.593
			L24.15,243.108c0,0-1.274,4.155-2.983,3.319c-1.883-0.921-0.103-4.47-0.103-4.47L36.543,206.593z"/>
		
			<linearGradient id="SVGID_00000129907066788875719000000003654429524995067801_" gradientUnits="userSpaceOnUse" x1="391.3134" y1="1180.9858" x2="392.3123" y2="1116.6605" gradientTransform="matrix(-0.8467 0.5321 -0.5321 -0.8467 1159.4661 787.9808)">
			<stop  offset="0" style="stop-color:#FFFFFF;stop-opacity:0.1"/>
			<stop  offset="1" style="stop-color:#EE5829"/>
		</linearGradient>
		<path style="opacity:0.42;fill:url(#SVGID_00000129907066788875719000000003654429524995067801_);" d="M209.28,12.922
			l21.843,31.777c0,0,2.567,3.507,0.875,4.376c-1.865,0.958-3.643-2.592-3.643-2.592L209.28,12.922z"/>
		<path style="opacity:0.52;fill:#00042A;" d="M0,0h107.95c0,0,28.279,12.012,21.058,46.607
			c-7.221,34.595-50.502,31.521-61.558,44.316S19.517,138.735,0,109.294V0z"/>
	</g>
</g>
<g id="DESIGNED_BY_FREEPIK">
	<g>
		<g id="XMLID_29_">
			<g id="XMLID_48_">
				<path id="XMLID_56_" style="fill:#FFFFFF;" d="M259.557,472.254c-0.408,0.418-0.759,0.881-1.047,1.373l-0.44-0.227
					c-0.065-0.281-0.331-0.477-0.625-0.441c-0.313,0.037-0.536,0.32-0.501,0.633c0.037,0.315,0.322,0.537,0.634,0.5
					c0.064-0.006,0.12-0.023,0.174-0.049l0.427,0.223c-0.236,0.523-0.408,1.076-0.51,1.648l0.708,0.125
					c0.216-1.236,0.804-2.371,1.693-3.285L259.557,472.254z"/>
				<path id="XMLID_55_" style="fill:#FFFFFF;" d="M264.749,470.076c-0.163,0-0.323,0.006-0.482,0.016l-0.07-0.592
					c0.178-0.143,0.281-0.369,0.251-0.611c-0.042-0.371-0.38-0.637-0.752-0.594c-0.371,0.045-0.637,0.381-0.593,0.754
					c0.027,0.24,0.18,0.436,0.383,0.533l0.068,0.59c-0.675,0.109-1.327,0.314-1.947,0.611l0.309,0.646
					c0.885-0.422,1.836-0.637,2.834-0.637c0.469,0,0.939,0.049,1.395,0.148l0.151-0.701
					C265.789,470.131,265.27,470.076,264.749,470.076z"/>
				<path id="XMLID_54_" style="fill:#FFFFFF;" d="M270.993,472.484c0.314-0.037,0.536-0.322,0.497-0.635
					c-0.037-0.313-0.321-0.535-0.636-0.498c-0.291,0.037-0.506,0.287-0.5,0.576l-0.394,0.344c-0.395-0.406-0.843-0.77-1.332-1.078
					l-0.383,0.607c1.073,0.676,1.912,1.633,2.426,2.766l0.652-0.295c-0.236-0.524-0.536-1.014-0.891-1.461l0.381-0.332
					C270.871,472.49,270.933,472.494,270.993,472.484z"/>
				<path id="XMLID_53_" style="fill:#FFFFFF;" d="M264.231,479.732c-0.366,0.022-0.733,0.033-1.096,0.033
					c-0.831,0-1.639-0.059-2.345-0.17c-0.369-0.059-0.8-0.147-1.2-0.277c0.99,1.762,2.902,2.957,5.097,2.957
					c2.701,0,4.978-1.813,5.628-4.26c-0.645,0.426-1.425,0.781-2.326,1.061C266.873,479.426,265.573,479.652,264.231,479.732z"/>
				<path id="XMLID_49_" style="fill:#FFFFFF;" d="M264.749,471.51c-3.171,0-5.752,2.523-5.752,5.623
					c0,0.402,0.045,0.803,0.13,1.191c0.637,0.459,2.56,0.844,5.058,0.693c2.725-0.166,5.011-0.906,6.311-2.043
					c-0.003-0.184-0.018-0.369-0.042-0.549C270.096,473.623,267.642,471.51,264.749,471.51z M262.705,477.672
					c-0.964,0-1.749-0.785-1.749-1.748c0-0.967,0.785-1.752,1.749-1.752c0.965,0,1.75,0.785,1.75,1.752
					C264.455,476.887,263.67,477.672,262.705,477.672z M267.188,476.815c-0.709,0-1.288-0.578-1.288-1.287
					c0-0.709,0.579-1.287,1.288-1.287c0.71,0,1.286,0.578,1.286,1.287C268.474,476.236,267.897,476.815,267.188,476.815z"/>
			</g>
			<path id="XMLID_46_" style="fill:#FFFFFF;" d="M279.888,473.277c-0.279-0.111-0.763-0.293-1.308-0.227
				c-0.521,0.066-0.799,0.322-0.799,0.953v0.818h2.108v1.625h-2.108v5.16h-1.827v-5.16h-1.268v-1.625h1.268v-0.84
				c0-1.59,0.847-2.633,2.43-2.633c0.607,0,1.094,0.115,1.504,0.291V473.277z"/>
			<path id="XMLID_44_" style="fill:#FFFFFF;" d="M284.335,476.428c-0.167-0.027-0.338-0.043-0.497-0.043
				c-0.847,0-1.429,0.518-1.429,1.525v3.697h-1.827v-6.785h1.772v0.742c0.427-0.637,1.077-0.924,1.91-0.924
				c0.392,0,0.802,0.121,1.036,0.318L284.335,476.428z"/>
			<path id="XMLID_41_" style="fill:#FFFFFF;" d="M291.588,478.205c0,0.209-0.015,0.461-0.035,0.615h-4.809
				c0.195,0.98,0.881,1.408,1.742,1.408c0.589,0,1.225-0.238,1.716-0.652l1.072,1.176c-0.771,0.709-1.752,1.031-2.892,1.031
				c-2.08,0-3.523-1.416-3.523-3.551c0-2.135,1.4-3.592,3.431-3.592C290.243,474.641,291.581,476.09,291.588,478.205z
				 M286.751,477.574h3.003c-0.168-0.867-0.693-1.357-1.477-1.357C287.416,476.217,286.912,476.734,286.751,477.574z"/>
			<path id="XMLID_38_" style="fill:#FFFFFF;" d="M298.829,478.205c0,0.209-0.015,0.461-0.035,0.615h-4.811
				c0.196,0.98,0.884,1.408,1.744,1.408c0.588,0,1.225-0.238,1.715-0.652l1.071,1.176c-0.771,0.709-1.749,1.031-2.892,1.031
				c-2.08,0-3.522-1.416-3.522-3.551c0-2.135,1.4-3.592,3.432-3.592C297.483,474.641,298.821,476.09,298.829,478.205z
				 M293.99,477.574h3.004c-0.168-0.867-0.694-1.357-1.477-1.357C294.655,476.217,294.15,476.734,293.99,477.574z"/>
			<path id="XMLID_35_" style="fill:#FFFFFF;" d="M306.724,478.211c0,2.039-1.415,3.572-3.285,3.572
				c-0.909,0-1.554-0.357-1.995-0.883v3.508h-1.82v-9.586h1.785v0.75c0.441-0.553,1.092-0.932,2.022-0.932
				C305.309,474.641,306.724,476.174,306.724,478.211z M301.352,478.211c0,1.072,0.708,1.871,1.744,1.871
				c1.077,0,1.75-0.834,1.75-1.871c0-1.035-0.673-1.869-1.75-1.869C302.06,476.342,301.352,477.141,301.352,478.211z"/>
			<path id="XMLID_32_" style="fill:#FFFFFF;" d="M309.659,472.603c0,0.658-0.512,1.162-1.169,1.162
				c-0.66,0-1.163-0.504-1.163-1.162c0-0.658,0.503-1.176,1.163-1.176C309.147,471.428,309.659,471.945,309.659,472.603z
				 M309.413,481.607h-1.827v-6.785h1.827V481.607z"/>
			<path id="XMLID_30_" style="fill:#FFFFFF;" d="M312.462,477.238l2.557-2.416h2.239l-3.29,3.193l3.313,3.592h-2.248l-2.57-2.744
				v2.744h-1.827v-10.082h1.827V477.238z"/>
		</g>
		<g>
			<path style="fill:#FFFFFF;" d="M187.957,481.547v-0.998c-0.499,0.68-1.315,1.164-2.258,1.164c-1.746,0-2.979-1.33-2.979-3.506
				c0-2.135,1.22-3.52,2.979-3.52c0.9,0,1.718,0.443,2.258,1.178v-3.561h1.04v9.242H187.957z M187.957,479.73v-3.033
				c-0.374-0.582-1.178-1.082-2.009-1.082c-1.344,0-2.147,1.109-2.147,2.592c0,1.483,0.804,2.576,2.147,2.576
				C186.779,480.783,187.583,480.313,187.957,479.73z"/>
			<path style="fill:#FFFFFF;" d="M190.341,478.193c0-1.939,1.386-3.506,3.298-3.506c2.022,0,3.214,1.58,3.214,3.588v0.264h-5.417
				c0.083,1.262,0.97,2.314,2.41,2.314c0.763,0,1.538-0.305,2.064-0.846l0.499,0.68c-0.665,0.664-1.565,1.025-2.66,1.025
				C191.768,481.713,190.341,480.285,190.341,478.193z M193.624,475.547c-1.427,0-2.134,1.205-2.189,2.23h4.393
				C195.813,476.779,195.148,475.547,193.624,475.547z"/>
			<path style="fill:#FFFFFF;" d="M197.601,480.66l0.541-0.748c0.443,0.512,1.288,0.955,2.202,0.955c1.026,0,1.58-0.484,1.58-1.15
				c0-1.621-4.143-0.623-4.143-3.103c0-1.039,0.9-1.926,2.493-1.926c1.137,0,1.94,0.43,2.482,0.969l-0.485,0.721
				c-0.401-0.484-1.136-0.844-1.996-0.844c-0.914,0-1.481,0.457-1.481,1.053c0,1.469,4.142,0.498,4.142,3.104
				c0,1.123-0.9,2.023-2.633,2.023C199.208,481.713,198.28,481.381,197.601,480.66z"/>
			<path style="fill:#FFFFFF;" d="M204.1,473.205c0-0.389,0.318-0.707,0.692-0.707c0.388,0,0.707,0.318,0.707,0.707
				c0,0.387-0.319,0.691-0.707,0.691C204.418,473.897,204.1,473.592,204.1,473.205z M204.279,481.547v-6.693h1.04v6.693H204.279z"/>
			<path style="fill:#FFFFFF;" d="M207.037,483.264l0.525-0.775c0.555,0.666,1.22,0.914,2.176,0.914
				c1.108,0,2.147-0.539,2.147-2.008v-0.957c-0.484,0.68-1.302,1.191-2.244,1.191c-1.746,0-2.979-1.303-2.979-3.463
				c0-2.148,1.22-3.478,2.979-3.478c0.9,0,1.704,0.443,2.244,1.178v-1.012h1.04v6.498c0,2.217-1.553,2.91-3.188,2.91
				C208.602,484.262,207.826,484.039,207.037,483.264z M211.886,479.621v-2.924c-0.359-0.582-1.163-1.082-1.995-1.082
				c-1.344,0-2.147,1.066-2.147,2.551c0,1.469,0.804,2.549,2.147,2.549C210.723,480.715,211.526,480.203,211.886,479.621z"/>
			<path style="fill:#FFFFFF;" d="M219.175,481.547v-4.379c0-1.178-0.597-1.553-1.497-1.553c-0.817,0-1.594,0.5-1.981,1.039v4.893
				h-1.039v-6.693h1.039v0.971c0.471-0.555,1.386-1.137,2.384-1.137c1.399,0,2.134,0.707,2.134,2.162v4.697H219.175z"/>
			<path style="fill:#FFFFFF;" d="M221.558,478.193c0-1.939,1.386-3.506,3.298-3.506c2.022,0,3.215,1.58,3.215,3.588v0.264h-5.418
				c0.083,1.262,0.97,2.314,2.41,2.314c0.763,0,1.538-0.305,2.065-0.846l0.498,0.68c-0.665,0.664-1.566,1.025-2.66,1.025
				C222.985,481.713,221.558,480.285,221.558,478.193z M224.841,475.547c-1.427,0-2.134,1.205-2.188,2.23h4.393
				C227.03,476.779,226.365,475.547,224.841,475.547z"/>
			<path style="fill:#FFFFFF;" d="M234.25,481.547v-0.998c-0.499,0.68-1.316,1.164-2.259,1.164c-1.746,0-2.98-1.33-2.98-3.506
				c0-2.135,1.22-3.52,2.98-3.52c0.9,0,1.719,0.443,2.259,1.178v-3.561h1.039v9.242H234.25z M234.25,479.73v-3.033
				c-0.375-0.582-1.178-1.082-2.009-1.082c-1.345,0-2.148,1.109-2.148,2.592c0,1.483,0.804,2.576,2.148,2.576
				C233.072,480.783,233.875,480.313,234.25,479.73z"/>
			<path style="fill:#FFFFFF;" d="M240.249,481.547v-9.242h1.039v3.561c0.541-0.734,1.345-1.178,2.259-1.178
				c1.745,0,2.979,1.385,2.979,3.52c0,2.176-1.234,3.506-2.979,3.506c-0.942,0-1.76-0.484-2.259-1.164v0.998H240.249z
				 M243.283,480.783c1.358,0,2.162-1.094,2.162-2.576c0-1.482-0.804-2.592-2.162-2.592c-0.817,0-1.635,0.5-1.995,1.082v3.033
				C241.648,480.313,242.466,480.783,243.283,480.783z"/>
			<path style="fill:#FFFFFF;" d="M247.662,483.223c0.152,0.07,0.402,0.111,0.567,0.111c0.458,0,0.763-0.152,0.998-0.707
				l0.443-1.012l-2.799-6.762h1.122l2.231,5.486l2.217-5.486h1.136l-3.353,8.051c-0.402,0.969-1.081,1.344-1.968,1.357
				c-0.222,0-0.568-0.041-0.763-0.098L247.662,483.223z"/>
		</g>
	</g>
</g>
</svg>
